<svg xmlns="http://www.w3.org/2000/svg" width="415" height="89" fill="none" viewBox="0 0 415 89"><path fill="#fff" d="M85.0808 61.6021L106.207 0.405706H79.8469L52.976 31.2406L47.4869 0.405706H21.1266L0 61.6021H20.9351L32.743 27.1157L38.6788 61.6021H46.2104L76.0174 27.1157L64.2094 61.6021H85.0808ZM168.566 61.6021L161.29 11.9688C161.034 11.0221 160.843 10.0078 160.396 8.58775C160.141 7.16772 159.694 5.95059 159.247 4.73342C158.8 3.51626 158.354 2.56959 157.651 1.6229C156.949 0.67622 156.503 0.405706 155.609 0.405706H137.163C136.716 0.405706 136.014 0.676203 135.121 1.35241C134.419 1.82575 133.525 2.56959 132.823 3.31341C132.121 4.05724 131.483 4.73341 130.781 5.47723C130.078 6.22105 129.632 6.89727 129.44 7.43824L90.0592 60.723V60.9935C90.0592 60.9935 90.0592 61.264 89.8039 61.7373H135.95C136.397 61.4668 137.291 60.7907 138.44 59.5735C139.589 58.3563 140.737 56.9363 141.631 55.4487C142.78 54.0286 143.929 52.541 144.567 51.3239C145.461 50.1067 146.163 49.16 146.163 48.6866L148.46 61.6697L168.566 61.6021ZM124.653 44.9675L143.099 18.9337L146.992 46.1846H124.909V44.9675H124.653ZM239.094 23.5318L225.435 61.6021H209.032C204.5 61.6021 200.16 61.1287 195.82 60.3849C191.48 59.4382 187.65 57.9506 184.203 56.0573C180.82 53.8934 178.076 50.9857 176.034 47.4018C173.991 43.818 173.098 39.2197 173.098 33.6749C173.098 30.091 173.8 26.2367 175.395 22.1118C176.991 18.2575 179.033 14.6736 181.523 11.2926C184.267 8.18203 187.203 5.47726 190.65 3.31341C194.096 1.14956 197.671 0.202811 201.564 0.202811H246.562C244.519 3.11049 242.222 6.01816 240.179 8.65535C238.137 11.2925 235.647 13.7269 233.158 15.8908H204.755C203.607 15.8908 202.458 16.1613 201.373 16.8375C200.288 17.5137 199.33 18.2574 198.437 19.4746C197.543 20.4213 196.841 21.909 195.947 23.0585C195.245 24.2757 194.607 25.6957 194.096 26.9128C193.394 28.8738 193.203 30.4968 193.203 31.714C193.203 33.134 193.458 34.8245 194.096 36.515C194.798 38.2055 195.692 39.6255 196.841 41.1131C197.99 42.5331 199.33 43.7503 200.479 44.4941C201.819 45.4408 203.224 45.9142 204.564 45.9142H210.947L213.436 38.476H201.628C201.628 38.2055 202.075 37.5293 202.968 36.3121C203.862 35.0949 204.819 33.6749 205.904 31.9844C207.053 30.2939 208.202 28.8739 209.542 27.1833C210.883 25.4928 212.032 24.2757 212.925 23.5995L239.094 23.5318ZM253.2 0.405706L232.073 61.6021H286.9C286.9 61.6021 287.347 61.1287 288.241 60.3849C289.134 59.6411 290.092 58.6945 291.177 57.4773C292.325 56.2601 293.474 55.0429 294.368 53.8934C295.517 52.6762 296.41 51.4591 297.112 50.7829C297.112 50.7829 297.368 50.5124 297.559 50.0391C297.815 49.5657 298.261 49.0924 298.453 48.619C298.708 48.1457 299.155 47.6723 299.346 47.1989C299.602 46.7256 299.793 46.2523 299.793 46.2523H258.37L260.859 39.2874H282.688L298.389 23.5995H273.114L262.646 34.2159L268.773 16.1613H302.41C303.112 16.1613 304.006 15.4174 305.155 14.2003C306.495 12.9831 307.899 11.5631 309.048 9.87255C310.388 8.18204 311.793 6.49154 312.941 4.80103C314.09 3.11052 314.984 1.69048 315.686 0.473309L253.2 0.405706ZM346.642 16.026C345.94 17.2432 345.493 18.6632 345.046 20.3537C344.599 22.0442 344.599 23.7348 344.599 25.6281C344.599 27.0482 344.855 28.2653 345.046 29.4825C345.493 30.4291 345.94 31.4434 346.897 31.9168C346.195 32.6606 345.046 33.3368 343.961 34.0807C342.812 35.0274 341.472 36.0416 340.323 37.6645C339.621 38.6112 338.983 39.8284 338.28 41.2484C337.578 42.4656 337.132 43.6827 336.94 44.6294L336.493 46.3199C336.047 48.0104 335.6 49.4304 335.344 50.9181C335.089 52.1352 334.898 53.3524 334.898 54.502C334.898 55.6515 335.153 56.9363 335.6 57.6125C336.047 58.5592 336.94 59.3031 338.089 59.7764C339.238 60.2497 340.834 60.723 342.876 60.9935C344.918 61.264 347.408 61.264 350.408 61.264H382.959C387.299 61.264 390.682 60.9935 393.427 60.5202C396.171 59.7764 398.214 59.1002 400.001 57.883C401.596 56.6658 402.937 54.9753 404.086 53.082C405.234 51.121 406.383 48.7542 407.277 46.117L407.979 43.6827C408.426 42.736 408.681 41.7217 408.873 40.775C409.128 39.5578 409.319 38.6112 409.319 37.8674V37.5969C409.319 36.1769 408.873 34.9597 408.171 34.013C407.468 33.0663 407.022 32.3225 406.575 31.8492C408.171 31.1053 409.511 29.8881 410.915 28.2653C412.255 26.5747 413.404 24.4109 414.106 22.4499C414.809 20.7594 415 19.3394 415 17.8518V16.1613C415 14.4708 414.745 12.7802 414.298 10.8869C413.851 8.92587 413.149 7.30298 412.255 5.81533C411.362 4.12482 410.213 2.90767 408.873 1.69051C407.532 0.473342 405.937 0 404.086 0H371.534C367.002 0 363.364 0.473326 360.62 1.42001C357.875 2.3667 355.641 3.381 353.79 4.80103C352.195 6.01819 350.854 7.70874 349.897 9.39924C349.003 11.0898 348.301 12.5098 347.854 14.2003L346.642 16.026ZM368.279 18.4603C368.726 17.5136 369.173 17.0403 370.321 16.4994C371.215 16.026 371.917 15.7555 372.364 15.7555H391.448C391.703 15.7555 392.15 16.2288 392.597 16.7022C393.044 17.446 393.49 17.9193 393.746 18.1222V19.3394C393.49 19.8127 393.299 20.5565 392.597 21.5032C391.895 22.4499 391.703 22.9233 391.448 22.9233H377.087L362.535 36.4474L368.279 18.4603ZM361.896 45.9142C361.641 45.9142 361.449 45.6437 361.003 44.9675C360.556 44.2237 360.109 43.7504 359.854 43.277V43.0065V42.736V42.5332L361.45 38.2055H386.725C386.725 38.6788 386.47 39.4226 386.278 40.6398C386.023 41.5865 385.831 42.0598 385.576 42.3303L385.321 42.8036L385.065 43.0741C385.065 43.3446 385.065 43.3446 385.065 43.3446C384.81 43.6151 384.619 43.8179 384.172 44.0884C383.725 44.3589 383.278 44.5618 382.831 44.8322C382.385 45.1027 381.938 45.3056 381.683 45.5761C381.236 45.8466 381.236 45.8465 381.236 45.8465H361.896V45.9142Z"/><path fill="#fff" d="M0.677607 87.9613C0.492801 87.9613 0.307965 87.8957 0.184761 87.7646C0.0615568 87.6334 0 87.4368 0 87.2401V67.503C0 67.3063 0.0615568 67.1096 0.184761 66.9785C0.307965 66.8473 0.492801 66.7817 0.677607 66.7817H2.95685C3.20326 66.7817 3.44966 66.8473 3.57287 66.9785C3.69607 67.1096 3.81929 67.2408 3.81929 67.3063L9.30188 78.2567L14.8461 67.3063C14.9077 67.2408 14.9693 67.1096 15.0925 66.9785C15.2157 66.8473 15.4005 66.7817 15.7085 66.7817H17.9262C18.111 66.7817 18.2958 66.8473 18.419 66.9785C18.5422 67.1096 18.6038 67.3063 18.6038 67.503V87.2401C18.6038 87.4368 18.5422 87.6334 18.419 87.7646C18.2958 87.8957 18.111 87.9613 17.9262 87.9613H15.5237C15.3389 87.9613 15.1541 87.8957 15.0309 87.7646C14.9077 87.6334 14.8461 87.4368 14.8461 87.2401V74.1258L10.8419 82.2566C10.7187 82.4533 10.5955 82.5845 10.4723 82.7156C10.3491 82.8468 10.1027 82.9123 9.85631 82.9123H8.68586C8.43945 82.9123 8.19305 82.8468 8.06984 82.7156C7.94664 82.5845 7.82345 82.4533 7.70024 82.2566L3.69612 74.1258V87.2401C3.69612 87.4368 3.63449 87.6334 3.51128 87.7646C3.38808 87.8957 3.20332 87.9613 3.01851 87.9613H0.677607Z"/><path fill="#fff" d="M28.2137 88.2896C27.0433 88.2896 26.0577 88.0273 25.1953 87.4371C24.3329 86.9126 23.7168 86.0602 23.224 85.0766C22.7928 84.0274 22.5464 82.8472 22.5464 81.4702V72.9459C22.5464 72.7492 22.608 72.5524 22.7312 72.4213C22.8544 72.2901 23.0392 72.2246 23.224 72.2246H25.7497C25.9345 72.2246 26.1193 72.2901 26.2425 72.4213C26.3657 72.5524 26.4273 72.7492 26.4273 72.9459V81.2734C26.4273 83.7651 27.4746 85.011 29.5074 85.011C30.4931 85.011 31.2938 84.6832 31.8483 84.0275C32.4027 83.3717 32.7107 82.4537 32.7107 81.2734V72.9459C32.7107 72.7492 32.7723 72.5524 32.8955 72.4213C33.0188 72.2901 33.2035 72.2246 33.3883 72.2246H35.914C36.0988 72.2246 36.2836 72.2901 36.4068 72.4213C36.53 72.5524 36.5917 72.7492 36.5917 72.9459V87.2405C36.5917 87.4372 36.53 87.6339 36.4068 87.765C36.2836 87.8961 36.0988 87.9617 35.914 87.9617H33.6347C33.4499 87.9617 33.2651 87.8961 33.1419 87.765C33.0187 87.6339 32.9571 87.4372 32.9571 87.2405V85.9946C32.4643 86.7159 31.7867 87.2405 31.0475 87.6339C30.3083 88.0929 29.3226 88.2896 28.2137 88.2896Z"/><path fill="#fff" d="M41.1503 87.9615C40.9655 87.9615 40.7807 87.8959 40.6575 87.7648C40.5343 87.6337 40.4727 87.437 40.4727 87.2403V67.1754C40.4727 66.9787 40.5343 66.782 40.6575 66.6508C40.7807 66.5197 40.9655 66.4541 41.1503 66.4541H43.4912C43.676 66.4541 43.8608 66.5197 43.984 66.6508C44.1072 66.782 44.1688 66.9787 44.1688 67.1754V87.2403C44.1688 87.437 44.1072 87.6337 43.984 87.7648C43.8608 87.8959 43.676 87.9615 43.4912 87.9615H41.1503Z"/><path fill="#fff" d="M54.6407 87.9617C53.4703 87.9617 52.5463 87.765 51.7454 87.306C50.9446 86.847 50.3902 86.2568 50.0206 85.4044C49.6509 84.5519 49.4661 83.5028 49.4661 82.2569V75.3719H47.1869C47.0021 75.3719 46.8172 75.3064 46.694 75.1753C46.5708 75.0441 46.5093 74.8474 46.5093 74.6507V72.8803C46.5093 72.6835 46.5708 72.4868 46.694 72.3557C46.8172 72.2245 47.0021 72.159 47.1869 72.159H49.4661V67.1099C49.4661 66.9132 49.5278 66.7166 49.651 66.5854C49.7742 66.4543 49.959 66.3887 50.1438 66.3887H52.4231C52.6079 66.3887 52.7927 66.4543 52.9159 66.5854C53.0391 66.7166 53.1007 66.9132 53.1007 67.1099V72.159H56.6736C56.8584 72.159 57.0432 72.2245 57.1664 72.3557C57.2896 72.4868 57.3512 72.6835 57.3512 72.8803V74.6507C57.3512 74.8474 57.2896 75.0441 57.1664 75.1753C57.0432 75.3064 56.8584 75.3719 56.6736 75.3719H53.1007V81.9291C53.1007 82.7815 53.2239 83.4372 53.5319 83.8962C53.7783 84.3552 54.2711 84.6175 54.9487 84.6175H56.92C57.1048 84.6175 57.2896 84.6831 57.4128 84.8142C57.536 84.9454 57.5976 85.1421 57.5976 85.3388V87.2404C57.5976 87.4371 57.536 87.6338 57.4128 87.7649C57.2896 87.8961 57.1048 87.9617 56.92 87.9617H54.6407Z"/><path fill="#fff" d="M60.7396 69.6015C60.5548 69.6015 60.37 69.5359 60.2468 69.4048C60.1236 69.2737 60.062 69.077 60.062 68.8803V66.7164C60.062 66.5197 60.1236 66.3229 60.2468 66.1918C60.37 66.0606 60.5548 65.9951 60.7396 65.9951H63.3269C63.5117 65.9951 63.6965 66.0606 63.8197 66.1918C63.9429 66.3229 64.0046 66.5197 64.0046 66.7164V68.8803C64.0046 69.077 63.9429 69.2737 63.8197 69.4048C63.6965 69.5359 63.5117 69.6015 63.3269 69.6015H60.7396ZM60.8628 87.9615C60.678 87.9615 60.4932 87.8959 60.37 87.7648C60.2468 87.6336 60.1852 87.437 60.1852 87.2403V72.9457C60.1852 72.749 60.2468 72.5522 60.37 72.4211C60.4932 72.2899 60.678 72.2244 60.8628 72.2244H63.2037C63.3885 72.2244 63.5733 72.2899 63.6965 72.4211C63.8197 72.5522 63.8813 72.749 63.8813 72.9457V87.2403C63.8813 87.437 63.8197 87.6336 63.6965 87.7648C63.5733 87.8959 63.3885 87.9615 63.2037 87.9615H60.8628Z"/><path fill="#fff" d="M68.3783 87.9617C68.1935 87.9617 68.0086 87.8961 67.8854 87.765C67.7622 87.6338 67.7007 87.4371 67.7007 87.2404V72.9458C67.7007 72.7491 67.7622 72.5524 67.8854 72.4212C68.0086 72.2901 68.1935 72.2246 68.3783 72.2246H70.5959C70.7808 72.2246 70.9656 72.2901 71.0888 72.4212C71.212 72.5524 71.2736 72.7491 71.2736 72.9458V73.995C71.6432 73.4048 72.1976 72.9459 72.8752 72.5524C73.5528 72.159 74.3537 71.9623 75.2777 71.9623C77.4337 71.8967 78.9738 72.8147 79.8362 74.6507C80.2675 73.8638 80.8835 73.2081 81.7459 72.6835C82.6083 72.159 83.4707 71.9623 84.518 71.9623C85.5036 71.9623 86.4277 72.2245 87.2285 72.6835C88.0293 73.1425 88.6453 73.9294 89.1381 74.913C89.6309 75.8965 89.8157 77.1424 89.8157 78.6505V87.3715C89.8157 87.5683 89.7542 87.765 89.631 87.8961C89.5078 88.0273 89.3229 88.0928 89.1381 88.0928H86.7973C86.6125 88.0928 86.4277 88.0273 86.3044 87.8961C86.1812 87.765 86.1196 87.5683 86.1196 87.3715V78.9128C86.1196 77.9948 85.9964 77.2736 85.75 76.749C85.5036 76.2244 85.1956 75.831 84.7644 75.6342C84.3332 75.4375 83.9019 75.3064 83.3475 75.3064C82.9163 75.3064 82.4851 75.4375 82.1155 75.6342C81.6843 75.831 81.3763 76.2244 81.0683 76.749C80.8219 77.2736 80.6987 77.9948 80.6987 78.9128V87.3715C80.6987 87.5683 80.6371 87.765 80.5138 87.8961C80.3906 88.0273 80.2059 88.0928 80.0211 88.0928H77.6802C77.4954 88.0928 77.3105 88.0273 77.1873 87.8961C77.0641 87.765 77.0026 87.5683 77.0026 87.3715V78.9128C77.0026 77.9948 76.8794 77.2736 76.633 76.749C76.3866 76.2244 76.0169 75.831 75.5857 75.6342C75.1545 75.4375 74.7233 75.3064 74.2305 75.3064C73.7993 75.3064 73.3681 75.4375 72.9369 75.6342C72.5056 75.8965 72.1976 76.2244 71.8896 76.749C71.6432 77.2736 71.52 77.9948 71.52 78.9128V87.3715C71.52 87.5683 71.4583 87.765 71.3351 87.8961C71.2119 88.0273 71.0272 88.0928 70.8424 88.0928H68.3783V87.9617Z"/><path fill="#fff" d="M99.795 88.2893C97.7006 88.2893 96.0373 87.6336 94.8053 86.3222C93.5733 85.0108 92.8956 83.1747 92.834 80.8142C92.834 80.6175 92.834 80.3552 92.834 80.0274C92.834 79.6995 92.834 79.4371 92.834 79.306C92.8956 77.7979 93.2652 76.4864 93.8196 75.3717C94.374 74.257 95.1749 73.4046 96.2221 72.8145C97.2693 72.2244 98.4398 71.8965 99.8566 71.8965C101.397 71.8965 102.69 72.2243 103.738 72.8801C104.785 73.5358 105.586 74.5193 106.078 75.6996C106.633 76.8799 106.879 78.3224 106.879 79.8962V80.5519C106.879 80.7486 106.818 80.9453 106.694 81.0765C106.571 81.2076 106.386 81.2731 106.202 81.2731H96.7149C96.7149 81.4043 96.7149 81.4699 96.7149 81.5354C96.7149 82.2567 96.8381 82.9124 97.0845 83.5026C97.3309 84.0927 97.7005 84.5518 98.1317 84.9452C98.6246 85.3386 99.179 85.4697 99.795 85.4697C100.349 85.4697 100.781 85.4041 101.15 85.2074C101.52 85.0107 101.828 84.8141 102.013 84.6173C102.259 84.4206 102.382 84.2239 102.506 84.0927C102.69 83.8305 102.814 83.6993 102.937 83.6338C103.06 83.5682 103.183 83.5681 103.43 83.5681H105.894C106.078 83.5681 106.263 83.6337 106.386 83.7649C106.51 83.896 106.571 84.0271 106.571 84.2239C106.571 84.5517 106.386 84.9452 106.078 85.4042C105.77 85.8632 105.339 86.3222 104.785 86.7812C104.23 87.2402 103.553 87.5681 102.69 87.8959C101.828 88.0926 100.842 88.2893 99.795 88.2893ZM96.6534 78.7159H102.937V78.6503C102.937 77.8634 102.814 77.1422 102.567 76.6176C102.321 76.0274 101.951 75.5685 101.458 75.2406C100.965 74.9128 100.411 74.716 99.7334 74.716C99.0558 74.716 98.5014 74.9128 98.0086 75.2406C97.5157 75.5685 97.2078 76.0274 96.9614 76.6176C96.715 77.2077 96.5917 77.8635 96.6534 78.7159Z"/><path fill="#fff" d="M115.38 88.2893C114.395 88.2893 113.532 88.0925 112.793 87.7647C112.054 87.4368 111.438 86.9123 110.945 86.2566C110.452 85.6009 110.082 84.814 109.774 83.9616C109.528 83.1092 109.343 82.1256 109.343 81.0764C109.343 80.683 109.343 80.3551 109.343 80.0929C109.343 79.8306 109.343 79.5027 109.343 79.1093C109.405 78.1257 109.528 77.1421 109.774 76.2897C110.021 75.4373 110.39 74.6504 110.945 73.9947C111.438 73.339 112.054 72.8144 112.855 72.4866C113.594 72.0932 114.456 71.962 115.442 71.962C116.489 71.962 117.352 72.1587 118.029 72.5521C118.768 72.9456 119.323 73.4045 119.816 73.9947V67.2409C119.816 67.0442 119.877 66.8474 120 66.7163C120.124 66.5851 120.308 66.5195 120.493 66.5195H122.896C123.08 66.5195 123.265 66.5851 123.388 66.7163C123.512 66.8474 123.573 67.0442 123.573 67.2409V87.3057C123.573 87.5024 123.512 87.6991 123.388 87.8302C123.265 87.9614 123.08 88.027 122.896 88.027H120.616C120.432 88.027 120.247 87.9614 120.124 87.8302C120 87.6991 119.939 87.5024 119.939 87.3057V86.1909C119.446 86.8467 118.83 87.3057 118.152 87.7647C117.351 88.0925 116.489 88.2893 115.38 88.2893ZM116.427 85.0107C117.228 85.0107 117.844 84.814 118.337 84.4205C118.83 84.0271 119.138 83.5682 119.384 82.978C119.631 82.3879 119.754 81.7977 119.754 81.142C119.754 80.7486 119.754 80.4207 119.754 79.9617C119.754 79.5682 119.754 79.1749 119.754 78.7814C119.754 78.1913 119.631 77.6011 119.384 77.011C119.138 76.4864 118.768 76.0274 118.276 75.634C117.783 75.2405 117.167 75.1094 116.427 75.1094C115.627 75.1094 115.011 75.3061 114.518 75.6995C114.025 76.093 113.717 76.552 113.532 77.1421C113.347 77.7323 113.224 78.388 113.163 79.1748C113.163 79.765 113.163 80.4207 113.163 81.0109C113.224 81.7322 113.347 82.3879 113.532 83.0436C113.717 83.6337 114.087 84.1582 114.518 84.4861C115.011 84.814 115.627 85.0107 116.427 85.0107Z"/><path fill="#fff" d="M127.886 69.6015C127.701 69.6015 127.516 69.5359 127.393 69.4048C127.27 69.2737 127.208 69.077 127.208 68.8803V66.7164C127.208 66.5197 127.27 66.3229 127.393 66.1918C127.516 66.0606 127.701 65.9951 127.886 65.9951H130.473C130.658 65.9951 130.843 66.0606 130.966 66.1918C131.089 66.3229 131.151 66.5197 131.151 66.7164V68.8803C131.151 69.077 131.089 69.2737 130.966 69.4048C130.843 69.5359 130.658 69.6015 130.473 69.6015H127.886ZM128.009 87.9615C127.824 87.9615 127.639 87.8959 127.516 87.7648C127.393 87.6336 127.331 87.437 127.331 87.2403V72.9457C127.331 72.749 127.393 72.5522 127.516 72.4211C127.639 72.2899 127.824 72.2244 128.009 72.2244H130.35C130.534 72.2244 130.719 72.2899 130.843 72.4211C130.966 72.5522 131.027 72.749 131.027 72.9457V87.2403C131.027 87.437 130.966 87.6336 130.843 87.7648C130.719 87.8959 130.534 87.9615 130.35 87.9615H128.009Z"/><path fill="#fff" d="M139.159 88.2893C138.173 88.2893 137.249 88.0926 136.51 87.6992C135.771 87.3057 135.093 86.7156 134.6 86.0599C134.108 85.3386 133.923 84.5518 133.923 83.6993C133.923 82.2568 134.477 81.142 135.524 80.2896C136.572 79.4371 137.989 78.9126 139.775 78.5847L143.656 77.9946V77.3389C143.656 76.4864 143.471 75.8307 143.04 75.3717C142.67 74.9127 141.931 74.6505 141.007 74.6505C140.329 74.6505 139.775 74.7816 139.344 75.1095C138.913 75.3718 138.605 75.7652 138.42 76.2897C138.297 76.552 138.05 76.6831 137.742 76.6831H135.463C135.278 76.6831 135.093 76.6176 134.97 76.4865C134.847 76.3553 134.785 76.2241 134.785 76.0274C134.785 75.6996 134.908 75.3062 135.155 74.8472C135.401 74.3882 135.771 73.9292 136.264 73.4702C136.756 73.0112 137.373 72.6833 138.173 72.3555C138.974 72.0276 139.898 71.8965 141.007 71.8965C142.178 71.8965 143.225 72.0276 144.026 72.3555C144.826 72.6833 145.504 73.0768 145.997 73.6013C146.49 74.1259 146.859 74.7161 147.106 75.4374C147.352 76.1586 147.475 76.8799 147.475 77.6667V87.1746C147.475 87.3713 147.414 87.568 147.29 87.6992C147.167 87.8303 146.982 87.8959 146.798 87.8959H144.457C144.272 87.8959 144.087 87.8303 143.964 87.6992C143.841 87.568 143.779 87.3713 143.779 87.1746V85.9943C143.533 86.3878 143.225 86.7156 142.793 87.0435C142.362 87.3713 141.869 87.6336 141.253 87.8303C140.699 88.1581 139.96 88.2893 139.159 88.2893ZM140.145 85.4042C140.822 85.4042 141.438 85.2731 141.931 84.9452C142.486 84.6173 142.917 84.1583 143.225 83.5026C143.533 82.8469 143.718 82.06 143.718 81.0765V80.4208L140.884 80.8797C139.775 81.0764 138.913 81.3388 138.358 81.7322C137.804 82.1256 137.557 82.6501 137.557 83.2403C137.557 83.6993 137.681 84.0928 137.927 84.355C138.173 84.6829 138.481 84.8796 138.913 85.0763C139.282 85.273 139.713 85.4042 140.145 85.4042Z"/><path fill="#fff" d="M161.951 88.2893C160.966 88.2893 160.042 88.0926 159.303 87.6992C158.563 87.3057 157.886 86.7156 157.393 86.0599C156.9 85.3386 156.715 84.5518 156.715 83.6993C156.715 82.2568 157.27 81.142 158.317 80.2896C159.364 79.4371 160.781 78.9126 162.568 78.5847L166.448 77.9946V77.3389C166.448 76.4864 166.264 75.8307 165.832 75.3717C165.463 74.9127 164.724 74.6505 163.8 74.6505C163.122 74.6505 162.567 74.7816 162.136 75.1095C161.705 75.3718 161.397 75.7652 161.212 76.2897C161.089 76.552 160.843 76.6831 160.535 76.6831H158.255C158.071 76.6831 157.886 76.6176 157.763 76.4865C157.639 76.3553 157.578 76.2241 157.578 76.0274C157.578 75.6996 157.701 75.3062 157.947 74.8472C158.194 74.3882 158.563 73.9292 159.056 73.4702C159.549 73.0112 160.165 72.6833 160.966 72.3555C161.767 72.0276 162.691 71.8965 163.8 71.8965C164.97 71.8965 166.017 72.0276 166.818 72.3555C167.619 72.6833 168.296 73.0768 168.789 73.6013C169.282 74.1259 169.652 74.7161 169.898 75.4374C170.145 76.1586 170.268 76.8799 170.268 77.6667V87.1746C170.268 87.3713 170.206 87.568 170.083 87.6992C169.96 87.8303 169.775 87.8959 169.59 87.8959H167.311C167.126 87.8959 166.941 87.8303 166.818 87.6992C166.695 87.568 166.633 87.3713 166.633 87.1746V85.9943C166.387 86.3878 166.079 86.7156 165.648 87.0435C165.216 87.3713 164.724 87.6336 164.108 87.8303C163.492 88.1581 162.752 88.2893 161.951 88.2893ZM162.937 85.4042C163.615 85.4042 164.231 85.2731 164.724 84.9452C165.278 84.6173 165.709 84.1583 166.017 83.5026C166.325 82.8469 166.51 82.06 166.51 81.0765V80.4208L163.676 80.8797C162.567 81.0764 161.705 81.3388 161.151 81.7322C160.596 82.1256 160.35 82.6501 160.35 83.2403C160.35 83.6993 160.473 84.0928 160.719 84.355C160.966 84.6829 161.274 84.8796 161.705 85.0763C162.075 85.273 162.506 85.4042 162.937 85.4042Z"/><path fill="#fff" d="M174.58 87.9615C174.395 87.9615 174.21 87.8959 174.087 87.7647C173.964 87.6336 173.902 87.4369 173.902 87.2402V72.9456C173.902 72.7489 173.964 72.5522 174.087 72.421C174.21 72.2899 174.395 72.2243 174.58 72.2243H176.921C177.106 72.2243 177.29 72.2899 177.414 72.421C177.537 72.5522 177.598 72.7489 177.598 72.9456V74.1915C178.091 73.5358 178.707 73.0112 179.508 72.5522C180.309 72.0932 181.233 71.8965 182.342 71.8965C183.512 71.8965 184.498 72.1587 185.36 72.7489C186.223 73.2734 186.9 74.0604 187.332 75.1095C187.824 76.0931 188.009 77.3389 188.009 78.7815V87.3058C188.009 87.5025 187.948 87.6991 187.824 87.8303C187.701 87.9614 187.516 88.027 187.332 88.027H184.806C184.621 88.027 184.436 87.9614 184.313 87.8303C184.19 87.6991 184.128 87.5025 184.128 87.3058V78.9781C184.128 77.7979 183.882 76.8799 183.327 76.2242C182.773 75.5685 181.972 75.2406 180.987 75.2406C180.001 75.2406 179.2 75.5685 178.646 76.2242C178.03 76.8799 177.783 77.7979 177.783 78.9781V87.3058C177.783 87.5025 177.722 87.6991 177.598 87.8303C177.475 87.9614 177.29 88.027 177.106 88.027L174.58 87.9615Z"/><path fill="#fff" d="M197.188 88.2893C196.202 88.2893 195.34 88.0925 194.601 87.7647C193.861 87.4368 193.245 86.9123 192.753 86.2566C192.26 85.6009 191.89 84.814 191.582 83.9616C191.336 83.1092 191.151 82.1256 191.151 81.0764C191.151 80.683 191.151 80.3551 191.151 80.0929C191.151 79.8306 191.151 79.5027 191.151 79.1093C191.212 78.1257 191.336 77.1421 191.582 76.2897C191.829 75.4373 192.198 74.6504 192.753 73.9947C193.245 73.339 193.861 72.8144 194.662 72.4866C195.401 72.0932 196.264 71.962 197.249 71.962C198.297 71.962 199.159 72.1587 199.837 72.5521C200.576 72.9456 201.13 73.4045 201.623 73.9947V67.2409C201.623 67.0442 201.685 66.8474 201.808 66.7163C201.931 66.5851 202.116 66.5195 202.301 66.5195H204.703C204.888 66.5195 205.073 66.5851 205.196 66.7163C205.319 66.8474 205.381 67.0442 205.381 67.2409V87.3057C205.381 87.5024 205.319 87.6991 205.196 87.8302C205.073 87.9614 204.888 88.027 204.703 88.027H202.424C202.239 88.027 202.054 87.9614 201.931 87.8302C201.808 87.6991 201.746 87.5024 201.746 87.3057V86.1909C201.254 86.8467 200.638 87.3057 199.96 87.7647C199.221 88.0925 198.297 88.2893 197.188 88.2893ZM198.235 85.0107C199.036 85.0107 199.652 84.814 200.145 84.4205C200.638 84.0271 200.946 83.5682 201.192 82.978C201.438 82.3879 201.562 81.7977 201.562 81.142C201.562 80.7486 201.562 80.4207 201.562 79.9617C201.562 79.5682 201.562 79.1749 201.562 78.7814C201.562 78.1913 201.438 77.6011 201.192 77.011C200.946 76.4864 200.576 76.0274 200.083 75.634C199.59 75.2405 198.974 75.1094 198.235 75.1094C197.434 75.1094 196.818 75.3061 196.325 75.6995C195.833 76.093 195.525 76.552 195.34 77.1421C195.155 77.7323 195.032 78.388 194.97 79.1748C194.97 79.765 194.97 80.4207 194.97 81.0109C195.032 81.7322 195.155 82.3879 195.34 83.0436C195.525 83.6337 195.894 84.1582 196.325 84.4861C196.818 84.814 197.496 85.0107 198.235 85.0107Z"/><path fill="#fff" d="M223.8 88.2895C222.075 88.2895 220.535 87.9617 219.364 87.306C218.132 86.6502 217.208 85.7322 216.531 84.4864C215.853 83.2405 215.483 81.798 215.422 80.0931C215.422 79.2407 215.422 78.2571 215.422 77.2735C215.422 76.2899 215.422 75.3064 215.422 74.454C215.483 72.7491 215.853 71.3721 216.531 70.1262C217.208 68.9459 218.194 68.028 219.426 67.3722C220.658 66.7165 222.137 66.3887 223.861 66.3887C225.278 66.3887 226.449 66.5854 227.496 66.9788C228.543 67.3723 229.406 67.8968 230.083 68.4869C230.761 69.0771 231.315 69.7984 231.623 70.4541C231.993 71.1754 232.178 71.8311 232.178 72.4212C232.178 72.6179 232.178 72.7491 232.054 72.8803C231.931 73.0114 231.808 73.0769 231.623 73.0769H228.666C228.481 73.0769 228.358 73.0114 228.235 72.9458C228.112 72.8802 228.05 72.7491 227.989 72.5524C227.865 72.159 227.619 71.7 227.249 71.3065C226.941 70.9131 226.51 70.5197 225.956 70.2574C225.401 69.9951 224.662 69.864 223.8 69.864C222.506 69.864 221.459 70.2574 220.72 70.9787C219.98 71.7 219.549 72.8802 219.488 74.5851C219.426 76.3555 219.426 78.1259 219.488 79.8964C219.549 81.6012 219.98 82.8471 220.781 83.5683C221.582 84.2896 222.629 84.6831 223.923 84.6831C224.785 84.6831 225.525 84.5519 226.202 84.2241C226.88 83.8962 227.434 83.3717 227.804 82.716C228.173 82.0602 228.358 81.1422 228.358 80.0931V79.1751H224.909C224.724 79.1751 224.539 79.1095 224.416 78.9783C224.293 78.8472 224.231 78.6505 224.231 78.4538V76.8145C224.231 76.6178 224.293 76.4211 224.416 76.2899C224.539 76.1588 224.724 76.0933 224.909 76.0933H231.746C231.931 76.0933 232.116 76.1588 232.239 76.2899C232.362 76.4211 232.424 76.6178 232.424 76.8145V80.0276C232.424 81.7324 232.054 83.1749 231.377 84.4208C230.699 85.6667 229.714 86.5847 228.42 87.2404C227.065 87.9617 225.525 88.2895 223.8 88.2895Z"/><path fill="#fff" d="M239.94 88.2893C238.954 88.2893 238.03 88.0926 237.291 87.6992C236.552 87.3057 235.874 86.7156 235.381 86.0599C234.888 85.3386 234.704 84.5518 234.704 83.6993C234.704 82.2568 235.258 81.142 236.305 80.2896C237.352 79.4371 238.769 78.9126 240.556 78.5847L244.437 77.9946V77.3389C244.437 76.4864 244.252 75.8307 243.821 75.3717C243.451 74.9127 242.712 74.6505 241.788 74.6505C241.11 74.6505 240.556 74.7816 240.125 75.1095C239.693 75.3718 239.385 75.7652 239.201 76.2897C239.077 76.552 238.831 76.6831 238.523 76.6831H236.244C236.059 76.6831 235.874 76.6176 235.751 76.4865C235.628 76.3553 235.566 76.2241 235.566 76.0274C235.566 75.6996 235.689 75.3062 235.936 74.8472C236.182 74.3882 236.552 73.9292 237.044 73.4702C237.537 73.0112 238.153 72.6833 238.954 72.3555C239.755 72.0276 240.679 71.8965 241.788 71.8965C242.958 71.8965 244.006 72.0276 244.806 72.3555C245.607 72.6833 246.285 73.0768 246.778 73.6013C247.27 74.1259 247.64 74.7161 247.886 75.4374C248.133 76.1586 248.256 76.8799 248.256 77.6667V87.1746C248.256 87.3713 248.194 87.568 248.071 87.6992C247.948 87.8303 247.763 87.8959 247.578 87.8959H245.299C245.114 87.8959 244.93 87.8303 244.806 87.6992C244.683 87.568 244.622 87.3713 244.622 87.1746V85.9943C244.375 86.3878 244.067 86.7156 243.636 87.0435C243.205 87.3713 242.712 87.6336 242.096 87.8303C241.48 88.1581 240.802 88.2893 239.94 88.2893ZM240.925 85.4042C241.603 85.4042 242.219 85.2731 242.712 84.9452C243.266 84.6173 243.697 84.1583 244.005 83.5026C244.314 82.8469 244.498 82.06 244.498 81.0765V80.4208L241.665 80.8797C240.556 81.0764 239.693 81.3388 239.139 81.7322C238.585 82.1256 238.338 82.6501 238.338 83.2403C238.338 83.6993 238.461 84.0928 238.708 84.355C238.954 84.6829 239.262 84.8796 239.693 85.0763C240.063 85.273 240.494 85.4042 240.925 85.4042Z"/><path fill="#fff" d="M252.63 87.9617C252.445 87.9617 252.26 87.8961 252.137 87.765C252.014 87.6338 251.952 87.4371 251.952 87.2404V72.9458C251.952 72.7491 252.014 72.5524 252.137 72.4212C252.26 72.2901 252.445 72.2246 252.63 72.2246H254.847C255.032 72.2246 255.217 72.2901 255.34 72.4212C255.463 72.5524 255.525 72.7491 255.525 72.9458V73.995C255.895 73.4048 256.449 72.9459 257.127 72.5524C257.804 72.159 258.605 71.9623 259.529 71.9623C261.685 71.8967 263.225 72.8147 264.088 74.6507C264.519 73.8638 265.135 73.2081 265.997 72.6835C266.86 72.159 267.722 71.9623 268.769 71.9623C269.755 71.9623 270.679 72.2245 271.48 72.6835C272.281 73.1425 272.897 73.9294 273.39 74.913C273.882 75.8965 274.067 77.1424 274.067 78.6505V87.3715C274.067 87.5683 274.006 87.765 273.882 87.8961C273.759 88.0273 273.574 88.0928 273.39 88.0928H271.049C270.864 88.0928 270.679 88.0273 270.556 87.8961C270.433 87.765 270.371 87.5683 270.371 87.3715V78.9128C270.371 77.9948 270.248 77.2736 270.001 76.749C269.755 76.2244 269.447 75.831 269.016 75.6342C268.585 75.4375 268.153 75.3064 267.599 75.3064C267.168 75.3064 266.737 75.4375 266.367 75.6342C265.936 75.831 265.628 76.2244 265.32 76.749C265.073 77.2736 264.95 77.9948 264.95 78.9128V87.3715C264.95 87.5683 264.889 87.765 264.765 87.8961C264.642 88.0273 264.457 88.0928 264.273 88.0928H261.932C261.747 88.0928 261.562 88.0273 261.439 87.8961C261.316 87.765 261.254 87.5683 261.254 87.3715V78.9128C261.254 77.9948 261.131 77.2736 260.884 76.749C260.638 76.2244 260.268 75.831 259.837 75.6342C259.406 75.4375 258.975 75.3064 258.482 75.3064C258.051 75.3064 257.62 75.4375 257.188 75.6342C256.757 75.8965 256.449 76.2244 256.141 76.749C255.895 77.2736 255.771 77.9948 255.771 78.9128V87.3715C255.771 87.5683 255.71 87.765 255.587 87.8961C255.463 88.0273 255.279 88.0928 255.094 88.0928H252.63V87.9617Z"/><path fill="#fff" d="M283.985 88.2893C281.891 88.2893 280.227 87.6336 278.995 86.3222C277.763 85.0108 277.086 83.1747 277.024 80.8142C277.024 80.6175 277.024 80.3552 277.024 80.0274C277.024 79.6995 277.024 79.4371 277.024 79.306C277.086 77.7979 277.455 76.4864 278.01 75.3717C278.564 74.257 279.365 73.4046 280.412 72.8145C281.459 72.2244 282.63 71.8965 284.047 71.8965C285.587 71.8965 286.88 72.2243 287.928 72.8801C288.975 73.5358 289.776 74.5193 290.268 75.6996C290.823 76.8799 291.069 78.3224 291.069 79.8962V80.5519C291.069 80.7486 291.008 80.9453 290.884 81.0765C290.761 81.2076 290.576 81.2731 290.392 81.2731H280.905C280.905 81.4043 280.905 81.4699 280.905 81.5354C280.905 82.2567 281.028 82.9124 281.274 83.5026C281.521 84.0927 281.89 84.5518 282.322 84.9452C282.814 85.3386 283.369 85.4697 283.985 85.4697C284.539 85.4697 284.971 85.4041 285.34 85.2074C285.71 85.0107 286.018 84.8141 286.203 84.6173C286.449 84.4206 286.572 84.2239 286.695 84.0927C286.88 83.8305 287.003 83.6993 287.127 83.6338C287.25 83.5682 287.373 83.5681 287.62 83.5681H290.084C290.268 83.5681 290.453 83.6337 290.576 83.7649C290.7 83.896 290.761 84.0271 290.761 84.2239C290.761 84.5517 290.576 84.9452 290.268 85.4042C289.96 85.8632 289.529 86.3222 288.975 86.7812C288.42 87.2402 287.743 87.5681 286.88 87.8959C286.018 88.0926 285.094 88.2893 283.985 88.2893ZM280.905 78.7159H287.188V78.6503C287.188 77.8634 287.065 77.1422 286.819 76.6176C286.572 76.0274 286.203 75.5685 285.71 75.2406C285.217 74.9128 284.663 74.716 283.985 74.716C283.307 74.716 282.753 74.9128 282.26 75.2406C281.767 75.5685 281.459 76.0274 281.213 76.6176C280.966 77.2077 280.843 77.8635 280.905 78.7159Z"/><path fill="#fff" d="M301.603 87.9613C301.419 87.9613 301.234 87.8957 301.111 87.7646C300.987 87.6334 300.926 87.4368 300.926 87.2401V67.503C300.926 67.3063 300.987 67.1096 301.111 66.9785C301.234 66.8473 301.419 66.7817 301.603 66.7817H314.17C314.355 66.7817 314.54 66.8473 314.663 66.9785C314.786 67.1096 314.848 67.3063 314.848 67.503V69.5358C314.848 69.7325 314.786 69.9292 314.663 70.0603C314.54 70.1914 314.355 70.2571 314.17 70.2571H304.807V75.6339H313.554C313.739 75.6339 313.924 75.6995 314.047 75.8306C314.17 75.9618 314.232 76.1584 314.232 76.3551V78.2567C314.232 78.4534 314.17 78.6502 314.047 78.7813C313.924 78.9125 313.739 78.978 313.554 78.978H304.807V84.5516H314.417C314.601 84.5516 314.786 84.6172 314.909 84.7483C315.033 84.8795 315.094 85.0762 315.094 85.2729V87.3056C315.094 87.5023 315.033 87.699 314.909 87.8301C314.786 87.9613 314.601 88.0269 314.417 88.0269L301.603 87.9613Z"/><path fill="#fff" d="M323.595 87.9617C323.287 87.9617 323.041 87.8961 322.918 87.765C322.794 87.6339 322.671 87.4372 322.548 87.2405L317.189 73.1426C317.127 73.0115 317.127 72.9459 317.127 72.8803C317.127 72.6836 317.189 72.5524 317.312 72.4213C317.435 72.2901 317.558 72.2246 317.743 72.2246H320.022C320.269 72.2246 320.392 72.2901 320.515 72.4213C320.638 72.5524 320.7 72.6836 320.761 72.8148L324.581 83.4373L328.4 72.8148C328.462 72.6836 328.523 72.5524 328.647 72.4213C328.77 72.2901 328.955 72.2246 329.139 72.2246H331.48C331.603 72.2246 331.788 72.2901 331.911 72.4213C332.035 72.5524 332.096 72.6836 332.096 72.8803C332.096 72.9459 332.096 73.0771 332.096 73.1426L326.737 87.2405C326.675 87.4372 326.552 87.6339 326.367 87.765C326.244 87.8961 325.998 87.9617 325.69 87.9617H323.595Z"/><path fill="#fff" d="M341.09 88.2893C338.995 88.2893 337.332 87.6336 336.1 86.3222C334.868 85.0108 334.191 83.1747 334.129 80.8142C334.129 80.6175 334.129 80.3552 334.129 80.0274C334.129 79.6995 334.129 79.4371 334.129 79.306C334.191 77.7979 334.56 76.4864 335.115 75.3717C335.669 74.257 336.47 73.4046 337.517 72.8145C338.564 72.2244 339.735 71.8965 341.151 71.8965C342.692 71.8965 343.985 72.2243 345.032 72.8801C346.08 73.5358 346.881 74.5193 347.373 75.6996C347.928 76.8799 348.174 78.3224 348.174 79.8962V80.5519C348.174 80.7486 348.113 80.9453 347.989 81.0765C347.866 81.2076 347.681 81.2731 347.497 81.2731H338.01C338.01 81.4043 338.01 81.4699 338.01 81.5354C338.01 82.2567 338.133 82.9124 338.379 83.5026C338.626 84.0927 338.995 84.5518 339.427 84.9452C339.919 85.3386 340.474 85.4697 341.09 85.4697C341.644 85.4697 342.076 85.4041 342.445 85.2074C342.815 85.0107 343.123 84.8141 343.308 84.6173C343.554 84.4206 343.677 84.2239 343.8 84.0927C343.985 83.8305 344.108 83.6993 344.232 83.6338C344.355 83.5682 344.478 83.5681 344.724 83.5681H347.188C347.373 83.5681 347.558 83.6337 347.681 83.7649C347.805 83.896 347.866 84.0271 347.866 84.2239C347.866 84.5517 347.681 84.9452 347.373 85.4042C347.065 85.8632 346.634 86.3222 346.08 86.7812C345.525 87.2402 344.848 87.5681 343.985 87.8959C343.061 88.0926 342.137 88.2893 341.09 88.2893ZM337.948 78.7159H344.232V78.6503C344.232 77.8634 344.108 77.1422 343.862 76.6176C343.616 76.0274 343.246 75.5685 342.753 75.2406C342.26 74.9128 341.706 74.716 341.028 74.716C340.351 74.716 339.796 74.9128 339.303 75.2406C338.811 75.5685 338.503 76.0274 338.256 76.6176C338.01 77.2077 337.887 77.8635 337.948 78.7159Z"/><path fill="#fff" d="M351.809 87.9615C351.624 87.9615 351.439 87.8959 351.316 87.7647C351.193 87.6336 351.131 87.4369 351.131 87.2402V72.9456C351.131 72.7489 351.193 72.5522 351.316 72.421C351.439 72.2899 351.624 72.2243 351.809 72.2243H354.15C354.335 72.2243 354.519 72.2899 354.643 72.421C354.766 72.5522 354.827 72.7489 354.827 72.9456V74.1915C355.32 73.5358 355.936 73.0112 356.737 72.5522C357.538 72.0932 358.462 71.8965 359.571 71.8965C360.741 71.8965 361.727 72.1587 362.589 72.7489C363.452 73.2734 364.129 74.0604 364.561 75.1095C365.053 76.0931 365.238 77.3389 365.238 78.7815V87.3058C365.238 87.5025 365.177 87.6991 365.053 87.8303C364.93 87.9614 364.745 88.027 364.561 88.027H362.035C361.85 88.027 361.665 87.9614 361.542 87.8303C361.419 87.6991 361.357 87.5025 361.357 87.3058V78.9781C361.357 77.7979 361.111 76.8799 360.556 76.2242C360.002 75.5685 359.201 75.2406 358.216 75.2406C357.23 75.2406 356.429 75.5685 355.875 76.2242C355.259 76.8799 355.012 77.7979 355.012 78.9781V87.3058C355.012 87.5025 354.951 87.6991 354.827 87.8303C354.704 87.9614 354.519 88.027 354.335 88.027L351.809 87.9615Z"/><path fill="#fff" d="M375.587 87.9617C374.417 87.9617 373.493 87.765 372.692 87.306C371.891 86.847 371.336 86.2568 370.967 85.4044C370.597 84.5519 370.412 83.5028 370.412 82.2569V75.3719H368.133C367.948 75.3719 367.764 75.3064 367.64 75.1753C367.517 75.0441 367.456 74.8474 367.456 74.6507V72.8803C367.456 72.6835 367.517 72.4868 367.64 72.3557C367.764 72.2245 367.948 72.159 368.133 72.159H370.412V67.1099C370.412 66.9132 370.474 66.7166 370.597 66.5854C370.72 66.4543 370.905 66.3887 371.09 66.3887H373.369C373.554 66.3887 373.739 66.4543 373.862 66.5854C373.985 66.7166 374.047 66.9132 374.047 67.1099V72.159H377.62C377.805 72.159 377.989 72.2245 378.113 72.3557C378.236 72.4868 378.297 72.6835 378.297 72.8803V74.6507C378.297 74.8474 378.236 75.0441 378.113 75.1753C377.989 75.3064 377.805 75.3719 377.62 75.3719H374.047V81.9291C374.047 82.7815 374.17 83.4372 374.478 83.8962C374.725 84.3552 375.217 84.6175 375.895 84.6175H377.866C378.051 84.6175 378.236 84.6831 378.359 84.8142C378.482 84.9454 378.544 85.1421 378.544 85.3388V87.2404C378.544 87.4371 378.482 87.6338 378.359 87.7649C378.236 87.8961 378.051 87.9617 377.866 87.9617H375.587Z"/><path fill="#fff" d="M395.115 88.2893C393.883 88.2893 392.713 88.1581 391.727 87.8302C390.741 87.5024 389.879 87.0434 389.263 86.4532C388.647 85.8631 388.093 85.2074 387.723 84.4205C387.353 83.6337 387.168 82.7813 387.168 81.7977C387.168 80.6174 387.415 79.6339 387.969 78.7814C388.524 77.929 389.201 77.2733 390.064 76.8143C389.386 76.3553 388.832 75.7651 388.4 75.0438C388.031 74.3225 387.846 73.4702 387.846 72.4866C387.846 71.3063 388.154 70.2571 388.709 69.4047C389.263 68.5523 390.064 67.831 391.173 67.3064C392.22 66.7819 393.575 66.5195 395.115 66.5195C396.655 66.5195 397.949 66.7819 398.996 67.2409C400.043 67.7655 400.844 68.4211 401.398 69.2736C401.953 70.126 402.199 71.1751 402.199 72.3554C402.199 73.339 402.015 74.1914 401.645 74.9127C401.275 75.634 400.721 76.2242 400.043 76.7487C400.906 77.2077 401.645 77.8634 402.199 78.7159C402.754 79.5683 403 80.6174 403 81.7977C403 83.0435 402.692 84.2238 402.076 85.2074C401.46 86.1909 400.536 86.9778 399.366 87.5024C398.257 87.9614 396.778 88.2893 395.115 88.2893ZM395.115 85.0763C395.854 85.0763 396.532 84.9451 397.148 84.6828C397.764 84.4206 398.195 84.0271 398.565 83.5025C398.934 82.978 399.119 82.3879 399.119 81.7321C399.119 81.0109 398.934 80.4207 398.565 79.8961C398.195 79.3715 397.764 79.0437 397.148 78.7159C396.532 78.4536 395.854 78.3224 395.115 78.3224C394.376 78.3224 393.698 78.4536 393.082 78.7159C392.466 78.9782 392.035 79.3715 391.665 79.8961C391.296 80.4207 391.111 81.0109 391.111 81.7321C391.111 82.3879 391.296 83.0435 391.665 83.5025C392.035 84.0271 392.466 84.4206 393.082 84.6828C393.698 84.9451 394.376 85.0763 395.115 85.0763ZM395.115 75.3717C395.731 75.3717 396.347 75.2405 396.84 74.9783C397.333 74.716 397.764 74.3881 398.072 73.9947C398.38 73.6013 398.565 73.0767 398.565 72.4866C398.565 71.8964 398.442 71.3718 398.134 70.9784C397.826 70.5194 397.456 70.1916 396.902 69.9948C396.409 69.7326 395.793 69.6014 395.115 69.6014C394.438 69.6014 393.883 69.7326 393.329 69.9948C392.836 70.2571 392.405 70.585 392.097 70.9784C391.789 71.4374 391.665 71.8964 391.665 72.4866C391.665 73.0767 391.789 73.6013 392.097 73.9947C392.405 74.3881 392.774 74.7815 393.329 74.9783C393.883 75.2405 394.438 75.3717 395.115 75.3717Z"/></svg>