<svg width="499" height="213" viewBox="0 0 499 213" fill="none" xmlns="http://www.w3.org/2000/svg">
<path d="M73.675 171.1C63.9917 171.1 55.0667 169.583 46.9 166.55C38.85 163.4 31.7917 158.967 25.725 153.25C19.775 147.533 15.1083 140.825 11.725 133.125C8.45833 125.425 6.825 116.967 6.825 107.75C6.825 98.5333 8.45833 90.075 11.725 82.375C15.1083 74.675 19.8333 67.9667 25.9 62.25C31.9667 56.5333 39.0833 52.1583 47.25 49.125C55.4167 45.975 64.4 44.4 74.2 44.4C85.05 44.4 94.7917 46.2083 103.425 49.825C112.175 53.4417 119.525 58.6917 125.475 65.575L107.275 82.375C102.842 77.7083 98 74.2667 92.75 72.05C87.5 69.7167 81.7833 68.55 75.6 68.55C69.65 68.55 64.225 69.4833 59.325 71.35C54.425 73.2167 50.1667 75.9 46.55 79.4C43.05 82.9 40.3083 87.0417 38.325 91.825C36.4583 96.6083 35.525 101.917 35.525 107.75C35.525 113.467 36.4583 118.717 38.325 123.5C40.3083 128.283 43.05 132.483 46.55 136.1C50.1667 139.6 54.3667 142.283 59.15 144.15C64.05 146.017 69.4167 146.95 75.25 146.95C80.85 146.95 86.275 146.075 91.525 144.325C96.8917 142.458 102.083 139.367 107.1 135.05L123.2 155.525C116.55 160.542 108.792 164.392 99.925 167.075C91.175 169.758 82.425 171.1 73.675 171.1ZM97.3 151.85V105.825H123.2V155.525L97.3 151.85ZM133.435 169L188.035 46.5H216.035L270.81 169H241.06L196.26 60.85H207.46L162.485 169H133.435ZM160.735 142.75L168.26 121.225H231.26L238.96 142.75H160.735ZM408.715 95.85H467.69V117.9H408.715V95.85ZM410.815 146.25H477.49V169H382.64V46.5H475.215V69.25H410.815V146.25Z" fill="white"/>
<path d="M275 168.883H243L266.411 149.883L275 168.883Z" fill="#000080"/>
<path d="M263.15 188.883V153.883H279.05C282.85 153.883 286.2 154.616 289.1 156.083C292 157.516 294.267 159.533 295.9 162.133C297.533 164.733 298.35 167.816 298.35 171.383C298.35 174.916 297.533 177.999 295.9 180.633C294.267 183.233 292 185.266 289.1 186.733C286.2 188.166 282.85 188.883 279.05 188.883H263.15ZM271.25 182.233H278.65C280.983 182.233 283 181.799 284.7 180.933C286.433 180.033 287.767 178.766 288.7 177.133C289.667 175.499 290.15 173.583 290.15 171.383C290.15 169.149 289.667 167.233 288.7 165.633C287.767 163.999 286.433 162.749 284.7 161.883C283 160.983 280.983 160.533 278.65 160.533H271.25V182.233Z" fill="white"/>
<path d="M263.15 188.883H258.15V193.883H263.15V188.883ZM263.15 153.883V148.883H258.15V153.883H263.15ZM289.1 156.083L286.843 160.545L286.864 160.555L286.885 160.565L289.1 156.083ZM295.9 162.133L291.666 164.793L295.9 162.133ZM295.9 180.633L300.134 183.293L300.141 183.28L300.149 183.268L295.9 180.633ZM289.1 186.733L291.315 191.215L291.336 191.205L291.357 191.195L289.1 186.733ZM271.25 182.233H266.25V187.233H271.25V182.233ZM284.7 180.933L286.971 185.387L286.988 185.379L287.004 185.37L284.7 180.933ZM288.7 177.133L284.397 174.586L284.378 174.619L284.359 174.652L288.7 177.133ZM288.7 165.633L284.359 168.114L284.389 168.166L284.42 168.218L288.7 165.633ZM284.7 161.883L282.361 166.302L282.412 166.329L282.464 166.355L284.7 161.883ZM271.25 160.533V155.533H266.25V160.533H271.25ZM268.15 188.883V153.883H258.15V188.883H268.15ZM263.15 158.883H279.05V148.883H263.15V158.883ZM279.05 158.883C282.199 158.883 284.752 159.487 286.843 160.545L291.357 151.621C287.648 149.745 283.501 148.883 279.05 148.883V158.883ZM286.885 160.565C289.003 161.612 290.551 163.018 291.666 164.793L300.134 159.473C297.982 156.048 294.997 153.42 291.315 151.6L286.885 160.565ZM291.666 164.793C292.722 166.474 293.35 168.602 293.35 171.383H303.35C303.35 167.03 302.344 162.992 300.134 159.473L291.666 164.793ZM293.35 171.383C293.35 174.119 292.727 176.262 291.651 177.997L300.149 183.268C302.339 179.737 303.35 175.714 303.35 171.383H293.35ZM291.666 177.973C290.545 179.758 288.982 181.189 286.843 182.271L291.357 191.195C295.018 189.343 297.989 186.707 300.134 183.293L291.666 177.973ZM286.885 182.25C284.784 183.289 282.215 183.883 279.05 183.883V193.883C283.485 193.883 287.616 193.044 291.315 191.215L286.885 182.25ZM279.05 183.883H263.15V193.883H279.05V183.883ZM271.25 187.233H278.65V177.233H271.25V187.233ZM278.65 187.233C281.599 187.233 284.428 186.684 286.971 185.387L282.429 176.478C281.572 176.915 280.367 177.233 278.65 177.233V187.233ZM287.004 185.37C289.556 184.045 291.612 182.114 293.041 179.614L284.359 174.652C283.921 175.418 283.311 176.02 282.396 176.495L287.004 185.37ZM293.003 179.679C294.494 177.159 295.15 174.334 295.15 171.383H285.15C285.15 172.831 284.839 173.84 284.397 174.586L293.003 179.679ZM295.15 171.383C295.15 168.417 294.502 165.567 292.98 163.047L284.42 168.218C284.831 168.898 285.15 169.882 285.15 171.383H295.15ZM293.041 163.152C291.603 160.635 289.524 158.705 286.936 157.411L282.464 166.355C283.343 166.794 283.931 167.364 284.359 168.114L293.041 163.152ZM287.039 157.464C284.481 156.109 281.627 155.533 278.65 155.533V165.533C280.34 165.533 281.519 165.856 282.361 166.302L287.039 157.464ZM278.65 155.533H271.25V165.533H278.65V155.533ZM266.25 160.533V182.233H276.25V160.533H266.25Z" fill="#000080"/>
<path d="M311.6 167.983H328.45V174.283H311.6V167.983ZM312.2 182.383H331.25V188.883H304.15V153.883H330.6V160.383H312.2V182.383Z" fill="white"/>
<path d="M311.6 167.983V162.983H306.6V167.983H311.6ZM328.45 167.983H333.45V162.983H328.45V167.983ZM328.45 174.283V179.283H333.45V174.283H328.45ZM311.6 174.283H306.6V179.283H311.6V174.283ZM312.2 182.383H307.2V187.383H312.2V182.383ZM331.25 182.383H336.25V177.383H331.25V182.383ZM331.25 188.883V193.883H336.25V188.883H331.25ZM304.15 188.883H299.15V193.883H304.15V188.883ZM304.15 153.883V148.883H299.15V153.883H304.15ZM330.6 153.883H335.6V148.883H330.6V153.883ZM330.6 160.383V165.383H335.6V160.383H330.6ZM312.2 160.383V155.383H307.2V160.383H312.2ZM311.6 172.983H328.45V162.983H311.6V172.983ZM323.45 167.983V174.283H333.45V167.983H323.45ZM328.45 169.283H311.6V179.283H328.45V169.283ZM316.6 174.283V167.983H306.6V174.283H316.6ZM312.2 187.383H331.25V177.383H312.2V187.383ZM326.25 182.383V188.883H336.25V182.383H326.25ZM331.25 183.883H304.15V193.883H331.25V183.883ZM309.15 188.883V153.883H299.15V188.883H309.15ZM304.15 158.883H330.6V148.883H304.15V158.883ZM325.6 153.883V160.383H335.6V153.883H325.6ZM330.6 155.383H312.2V165.383H330.6V155.383ZM307.2 160.383V182.383H317.2V160.383H307.2Z" fill="#000080"/>
<path d="M348.65 188.883L333.55 153.883H342.3L355.5 184.883H350.35L363.75 153.883H371.8L356.65 188.883H348.65Z" fill="white"/>
<path d="M348.65 188.883L344.059 190.863L345.362 193.883H348.65V188.883ZM333.55 153.883V148.883H325.947L328.959 155.863L333.55 153.883ZM342.3 153.883L346.9 151.924L345.605 148.883H342.3V153.883ZM355.5 184.883V189.883H363.063L360.1 182.924L355.5 184.883ZM350.35 184.883L345.76 182.899L342.742 189.883H350.35V184.883ZM363.75 153.883V148.883H360.464L359.16 151.899L363.75 153.883ZM371.8 153.883L376.389 155.869L379.413 148.883H371.8V153.883ZM356.65 188.883V193.883H359.934L361.239 190.869L356.65 188.883ZM353.241 186.902L338.141 151.902L328.959 155.863L344.059 190.863L353.241 186.902ZM333.55 158.883H342.3V148.883H333.55V158.883ZM337.7 155.842L350.9 186.842L360.1 182.924L346.9 151.924L337.7 155.842ZM355.5 179.883H350.35V189.883H355.5V179.883ZM354.94 186.867L368.34 155.867L359.16 151.899L345.76 182.899L354.94 186.867ZM363.75 158.883H371.8V148.883H363.75V158.883ZM367.211 151.897L352.061 186.897L361.239 190.869L376.389 155.869L367.211 151.897ZM356.65 183.883H348.65V193.883H356.65V183.883Z" fill="#000080"/>
<path d="M393.358 164.686C389.46 167.104 384.483 166.839 380.831 164.075C374.069 158.949 366.227 150.584 358.194 141.642C354.174 136.788 349.123 133.963 342.231 134.758H283.053C276.169 133.963 271.11 136.788 267.098 141.642C266.88 141.887 266.663 142.125 266.446 142.363C258.637 151.033 251.033 159.085 244.461 164.076C240.801 166.839 235.831 167.104 231.927 164.687C222.272 158.733 219.427 147.543 220.514 133.787C220.52 133.658 220.534 133.53 220.547 133.393C220.771 130.59 221.172 127.683 221.708 124.689C221.708 124.675 221.708 124.655 221.715 124.641C221.756 124.41 221.803 124.173 221.844 123.942C224.39 110.132 229.788 94.6177 235.702 79.5443C237.453 75.0838 239.246 70.6638 241.025 66.3319C241.54 65.0823 242.05 63.8265 242.559 62.5976L247.685 59.6576L247.766 59.3859L248.873 55.3256C249.348 53.5672 250.577 52.1002 252.227 51.3266C259.573 47.8501 267.157 45.2836 275.02 43.7899C275.223 43.7493 275.42 43.708 275.624 43.6743C277.132 43.4026 278.693 43.695 280.011 44.4962L285.789 48.02C287.622 49.1472 289.734 49.7448 291.893 49.7448H333.398C335.551 49.7448 337.662 49.1472 339.503 48.02L345.274 44.4962C346.584 43.695 348.153 43.4034 349.667 43.6743C357.733 45.1542 365.521 47.7614 373.057 51.3266C374.707 52.1002 375.929 53.5672 376.418 55.3256L377.599 59.6576L382.726 62.5976C383.269 63.9077 383.819 65.2384 384.362 66.576C392.224 85.7021 400.365 106.675 403.57 124.654C406.76 142.532 405.069 157.456 393.358 164.686Z" fill="#5E6C7A"/>
<path d="M237.74 166.543C235.7 166.543 233.656 165.982 231.826 164.85C222.87 159.326 219.108 149.161 220.323 133.772C220.329 133.652 220.342 133.525 220.355 133.392C220.573 130.675 220.953 127.822 221.52 124.656C221.518 124.659 221.515 124.636 221.53 124.592C221.55 124.481 221.571 124.369 221.592 124.255C221.614 124.139 221.636 124.023 221.656 123.909C224.489 108.543 230.928 91.1906 235.524 79.4758C237.049 75.5907 238.741 71.3919 240.848 66.2603C241.086 65.6841 241.322 65.1071 241.558 64.5317C241.834 63.8583 242.108 63.1879 242.383 62.5252L242.408 62.4648L247.525 59.5309L247.584 59.332L248.689 55.2763C249.181 53.4565 250.442 51.9544 252.147 51.154C259.673 47.5926 267.357 45.0521 274.985 43.6027L275.077 43.5844C275.25 43.5499 275.419 43.5155 275.594 43.4864C277.148 43.2056 278.753 43.5071 280.111 44.3327L285.889 47.8566C287.694 48.9662 289.77 49.5531 291.893 49.5531H333.398C335.514 49.5531 337.59 48.9662 339.402 47.8566L345.174 44.3327C346.527 43.5055 348.135 43.2056 349.7 43.4864C357.536 44.9243 365.422 47.5038 373.138 51.154C374.832 51.9491 376.094 53.4504 376.602 55.2747L377.762 59.5309L382.876 62.464L382.902 62.5245C383.445 63.8353 383.995 65.1668 384.538 66.5044C392.663 86.2672 400.614 106.986 403.758 124.621C407.423 145.15 404.053 158.308 393.459 164.849H393.459C389.541 167.279 384.421 167.03 380.716 164.228C373.856 159.028 365.77 150.362 358.052 141.771C353.655 136.459 348.486 134.23 342.254 134.948L283.054 134.949C276.791 134.228 271.632 136.458 267.246 141.764C267.036 142.002 266.83 142.227 266.623 142.452L266.588 142.491C259.157 150.743 251.346 159.088 244.578 164.228C242.541 165.766 240.143 166.543 237.74 166.543ZM221.899 124.702L221.897 124.723C221.332 127.877 220.954 130.718 220.739 133.408C220.723 133.557 220.711 133.677 220.705 133.797C219.502 149.034 223.206 159.083 232.028 164.524C235.873 166.905 240.709 166.67 244.346 163.923C251.089 158.803 258.884 150.474 266.304 142.234L266.34 142.195C266.544 141.97 266.749 141.746 266.954 141.516C271.426 136.106 276.701 133.834 283.075 134.568L342.232 134.567C348.583 133.834 353.86 136.108 358.342 141.521C366.041 150.092 374.112 158.743 380.946 163.924C384.525 166.631 389.472 166.872 393.257 164.525C403.702 158.076 407.014 145.046 403.381 124.689C400.243 107.09 392.3 86.3934 384.184 66.6498C383.649 65.3329 383.108 64.0228 382.573 62.7319L377.436 59.785L376.233 55.3773C375.757 53.6616 374.569 52.2483 372.976 51.5006C365.288 47.865 357.434 45.2954 349.633 43.8637C348.159 43.5997 346.647 43.8828 345.374 44.6603L339.603 48.1841C337.731 49.3304 335.585 49.9365 333.399 49.9365H291.894C289.7 49.9365 287.555 49.3304 285.69 48.1834L279.913 44.6603C278.635 43.8828 277.122 43.5997 275.66 43.8637C275.487 43.892 275.322 43.9256 275.154 43.9593L275.06 43.9784C267.461 45.4217 259.808 47.9523 252.311 51.5006C250.707 52.2528 249.522 53.6655 249.06 55.3765L247.848 59.7865L242.713 62.7319C242.447 63.3739 242.181 64.0236 241.914 64.6763C241.678 65.2517 241.442 65.8295 241.204 66.4057C239.098 71.535 237.407 75.7323 235.882 79.6151C231.292 91.3161 224.862 108.645 222.035 123.978C222.015 124.092 221.993 124.209 221.971 124.327C221.948 124.444 221.926 124.561 221.906 124.675L221.899 124.702Z" fill="#0F227A"/>
<g opacity="0.55">
<path opacity="0.55" d="M403.569 124.56C400.364 106.581 392.224 85.6076 384.361 66.4815C383.818 65.1439 383.268 63.8132 382.725 62.5031L377.599 59.5631L376.417 55.2312C375.928 53.4727 374.706 52.0057 373.056 51.2321C365.519 47.6677 357.732 45.0606 349.666 43.5798C348.152 43.3082 346.584 43.6005 345.273 44.4017L339.502 47.9256C339.407 47.9837 339.309 48.0342 339.212 48.0893C338.781 47.8345 338.235 47.7962 337.756 48.0411C337.332 48.2577 337.061 48.6487 336.97 49.0811C335.819 49.4514 334.617 49.6496 333.398 49.6496H291.892C291.345 49.6496 290.801 49.6106 290.264 49.5348C290.323 48.9349 290.02 48.3319 289.451 48.0403C288.708 47.6608 287.796 47.9546 287.416 48.6984L287.394 48.7421C286.841 48.511 286.303 48.2408 285.789 47.9248L280.011 44.4009C278.694 43.5997 277.132 43.3082 275.624 43.5791C275.421 43.6127 275.224 43.6541 275.02 43.6946C267.157 45.1883 259.574 47.7549 252.227 51.2313C250.577 52.005 249.348 53.4719 248.873 55.2304L247.766 59.2907L247.685 59.5624L242.559 62.5024C242.05 63.7313 241.54 64.9871 241.025 66.2367C239.246 70.5686 237.453 74.9886 235.702 79.4491C229.788 94.5217 224.39 110.036 221.844 123.847C221.804 124.078 221.756 124.315 221.715 124.546C221.708 124.56 221.708 124.58 221.708 124.594C221.172 127.588 220.771 130.494 220.547 133.298C220.533 133.434 220.52 133.563 220.514 133.692C220.315 136.204 220.25 138.63 220.331 140.955C220.365 139.871 220.425 138.772 220.514 137.653C220.52 137.524 220.534 137.395 220.547 137.259C220.771 134.455 221.172 131.549 221.708 128.554C221.708 128.541 221.708 128.521 221.715 128.507C221.756 128.276 221.803 128.039 221.844 127.808C224.39 113.998 229.788 98.4833 235.702 83.4099C237.453 78.9494 239.246 74.5287 241.025 70.1975C241.54 68.9479 242.05 67.6921 242.559 66.4632L247.685 63.5232L247.766 63.2515L248.873 59.1912C249.348 57.4327 250.577 55.9658 252.227 55.1922C259.573 51.7157 267.157 49.1492 275.02 47.6554C275.223 47.6149 275.421 47.5736 275.624 47.5399C277.132 47.2682 278.694 47.5605 280.011 48.3617L285.786 51.8841L282.466 58.3732C282.086 59.117 282.381 60.0276 283.124 60.4079C283.345 60.5204 283.58 60.574 283.812 60.574C284.362 60.574 284.891 60.2733 285.159 59.7498L288.552 53.1169C289.63 53.439 290.754 53.6097 291.892 53.6097H333.398C335.11 53.6097 336.795 53.2255 338.34 52.5024L342.047 59.7498C342.315 60.2733 342.844 60.574 343.394 60.574C343.626 60.574 343.861 60.5204 344.082 60.4079C344.825 60.0276 345.12 59.1162 344.74 58.3732L340.965 50.9926L345.273 48.3617C346.583 47.5605 348.152 47.269 349.666 47.5399C357.733 49.0198 365.52 51.627 373.056 55.1922C374.706 55.9666 375.928 57.4327 376.417 59.1912L377.599 63.5232L382.725 66.4632C383.268 67.7732 383.818 69.104 384.361 70.4416C392.224 89.5677 400.364 110.541 403.569 128.52C404.341 132.845 404.824 136.995 404.952 140.907C405.125 135.879 404.607 130.377 403.569 124.56Z" fill="white"/>
</g>
<g opacity="0.3">
<path opacity="0.3" d="M331.108 49.7459C331.189 50.1124 331.237 50.3297 331.237 50.3297L338.666 62.6055L341.035 61.4714C345.408 52.8076 353.766 53.9822 353.766 53.9822L350.419 44.3342L350.188 43.7909C349.984 43.7503 349.787 43.709 349.583 43.6753C348.076 43.4037 346.514 43.696 345.197 44.4972L339.419 48.0211C337.585 49.1482 335.474 49.7459 333.314 49.7459H331.108Z" fill="#0F227A"/>
<g opacity="0.3">
<path opacity="0.3" d="M294.1 49.7459C294.019 50.1124 293.971 50.3297 293.971 50.3297L286.543 62.6055L284.173 61.4714C279.8 52.8076 271.443 53.9822 271.443 53.9822L274.79 44.3342L275.021 43.7909C275.224 43.7503 275.421 43.709 275.625 43.6753C277.133 43.4037 278.694 43.696 280.012 44.4972L285.79 48.0211C287.623 49.1482 289.735 49.7459 291.894 49.7459H294.1Z" fill="#0F227A"/>
</g>
</g>
<path d="M386.691 59.1094L387.343 60.6835C387.887 61.9935 388.44 63.333 388.988 64.683C396.829 83.7562 405.179 105.198 408.491 123.778C411.706 141.792 410.637 159.895 395.984 168.942C390.306 172.458 383.09 172.053 377.815 168.063L377.811 168.06C370.607 162.6 362.458 153.871 354.475 144.984L354.408 144.909L354.344 144.832C351.147 140.971 347.652 139.167 342.805 139.725L342.519 139.758H342.232H283.054H282.767L282.481 139.725C277.639 139.167 274.14 140.972 270.952 144.829L270.896 144.896L270.838 144.962C270.615 145.213 270.393 145.456 270.199 145.668L270.15 145.722C262.384 154.345 254.486 162.743 247.485 168.059L247.475 168.066C242.193 172.056 234.981 172.459 229.296 168.939L386.691 59.1094ZM386.691 59.1094L385.212 58.2616M386.691 59.1094L385.212 58.2616M385.212 58.2616L382.058 56.4526L381.885 55.5841M385.212 58.2616L381.885 55.5841M381.885 55.5841L378.827 54.8085M381.885 55.5841L378.827 54.8085M378.827 54.8085L358.207 49.5789L356.978 54.4251M378.827 54.8085L356.978 54.4251M356.978 54.4251L358.207 49.5789C351.181 47.7972 343.742 49.9721 338.784 55.2586C338.783 55.2587 338.783 55.2587 338.783 55.2588L330.394 64.2018L330.394 64.2023M356.978 54.4251L330.394 64.2023M330.394 64.2023C329.17 65.507 327.46 66.2475 325.67 66.2475H312.643H299.617C297.827 66.2475 296.117 65.5068 294.892 64.2018C294.892 64.2018 294.892 64.2017 294.892 64.2017L286.503 55.2586L286.503 55.2584M330.394 64.2023L286.503 55.2584M286.503 55.2584C281.544 49.9724 274.105 47.7971 267.08 49.579L267.079 49.5791M286.503 55.2584L267.079 49.5791M267.079 49.5791L246.455 54.8125L245.792 54.9809M267.079 49.5791L245.792 54.9809M245.792 54.9809L245.198 55.3215M245.792 54.9809L245.198 55.3215M245.198 55.3215L240.072 58.2607L238.593 59.1093M245.198 55.3215L238.593 59.1093M238.593 59.1093L237.94 60.6853M238.593 59.1093L237.94 60.6853M237.94 60.6853C237.67 61.3381 237.381 62.0442 237.095 62.7422C236.858 63.3203 236.623 63.8929 236.404 64.4248L236.4 64.4329M237.94 60.6853L236.4 64.4329M236.4 64.4329C234.616 68.7779 232.813 73.2238 231.049 77.7172L231.048 77.7186M236.4 64.4329L231.048 77.7186M231.048 77.7186C225.112 92.8488 219.565 108.732 216.928 123.036L216.924 123.057M231.048 77.7186L216.924 123.057M216.924 123.057L216.92 123.078M216.924 123.057L216.92 123.078M216.92 123.078C216.886 123.273 216.878 123.311 216.869 123.358M216.92 123.078L216.869 123.358M216.869 123.358C216.86 123.4 216.85 123.449 216.818 123.626M216.869 123.358L216.818 123.626M216.818 123.626C216.79 123.761 216.771 123.879 216.757 123.976C216.217 127.018 215.804 130.013 215.568 132.94C215.556 133.057 215.538 133.242 215.526 133.446C214.4 147.809 217.228 161.491 229.296 168.939L216.818 123.626Z" fill="white" stroke="#000080" stroke-width="10"/>
<path d="M288.658 124.643C296.731 124.643 303.275 118.099 303.275 110.026C303.275 101.953 296.731 95.4082 288.658 95.4082C280.585 95.4082 274.041 101.953 274.041 110.026C274.041 118.099 280.585 124.643 288.658 124.643Z" fill="#D0D4D8"/>
<path d="M288.658 124.835C280.493 124.835 273.849 118.192 273.849 110.026C273.849 101.86 280.492 95.2173 288.658 95.2173C296.824 95.2173 303.467 101.86 303.467 110.026C303.467 118.192 296.824 124.835 288.658 124.835ZM288.658 95.6007C280.704 95.6007 274.232 102.072 274.232 110.027C274.232 117.981 280.704 124.453 288.658 124.453C296.613 124.453 303.084 117.981 303.084 110.027C303.084 102.071 296.613 95.6007 288.658 95.6007Z" fill="#0F227A"/>
<g opacity="0.3">
<path opacity="0.3" d="M300.482 101.437C298.788 100.747 296.928 100.363 294.983 100.363C286.908 100.363 280.365 106.911 280.365 114.981C280.365 118.192 281.398 121.16 283.158 123.57C277.809 121.402 274.04 116.155 274.04 110.026C274.04 101.956 280.587 95.4084 288.657 95.4084C293.521 95.4092 297.825 97.7829 300.482 101.437Z" fill="#102770"/>
<path opacity="0.3" d="M283.847 124.106L283.068 123.791C277.438 121.51 273.801 116.107 273.801 110.025C273.801 101.834 280.465 95.1692 288.657 95.1692C293.394 95.1692 297.887 97.4595 300.676 101.296L301.169 101.976L300.392 101.659C298.673 100.958 296.853 100.603 294.983 100.603C287.056 100.603 280.605 107.052 280.605 114.981C280.605 118.046 281.554 120.968 283.351 123.429L283.847 124.106ZM288.657 95.6475C280.729 95.6475 274.279 102.098 274.279 110.025C274.279 115.631 277.473 120.641 282.486 123.013C280.939 120.622 280.126 117.863 280.126 114.98C280.126 106.788 286.791 100.124 294.983 100.124C296.631 100.124 298.24 100.391 299.779 100.918C297.06 97.6034 292.963 95.6475 288.657 95.6475Z" fill="#0F227A"/>
</g>
<path d="M344.851 117.392C348.919 113.324 348.919 106.728 344.851 102.66C340.783 98.5918 334.187 98.5918 330.119 102.66C326.051 106.728 326.051 113.324 330.119 117.392C334.187 121.46 340.783 121.46 344.851 117.392Z" fill="#5E6C7A"/>
<path d="M337.488 120.682C331.612 120.682 326.832 115.902 326.832 110.026C326.832 104.15 331.612 99.37 337.488 99.37C343.364 99.37 348.143 104.15 348.143 110.026C348.143 115.902 343.363 120.682 337.488 120.682ZM337.488 99.8483C331.876 99.8483 327.31 104.414 327.31 110.026C327.31 115.638 331.875 120.203 337.488 120.203C343.1 120.203 347.665 115.638 347.665 110.026C347.665 104.414 343.099 99.8483 337.488 99.8483Z" fill="#0F227A"/>
<path d="M344.851 117.392C348.919 113.324 348.919 106.728 344.851 102.66C340.783 98.5918 334.187 98.5918 330.119 102.66C326.051 106.728 326.051 113.324 330.119 117.392C334.187 121.46 340.783 121.46 344.851 117.392Z" fill="#D0D4D8"/>
<path d="M337.488 120.634C331.638 120.634 326.88 115.875 326.88 110.026C326.88 104.176 331.639 99.4172 337.488 99.4172C343.337 99.4172 348.096 104.176 348.096 110.026C348.096 115.875 343.337 120.634 337.488 120.634ZM337.488 99.8006C331.849 99.8006 327.263 104.387 327.263 110.026C327.263 115.665 331.849 120.252 337.488 120.252C343.126 120.252 347.713 115.665 347.713 110.026C347.713 104.387 343.126 99.8006 337.488 99.8006Z" fill="#0F227A"/>
<path d="M273.112 88.0198C277.18 83.9517 277.18 77.3561 273.112 73.288C269.044 69.22 262.449 69.22 258.381 73.288C254.313 77.3561 254.313 83.9517 258.381 88.0198C262.449 92.0879 269.044 92.0879 273.112 88.0198Z" fill="#5E6C7A"/>
<path d="M265.749 91.3106C259.872 91.3106 255.093 86.5302 255.093 80.6548C255.093 74.7794 259.873 69.9982 265.749 69.9982C271.624 69.9982 276.404 74.7786 276.404 80.6548C276.404 86.531 271.624 91.3106 265.749 91.3106ZM265.749 70.4773C260.137 70.4773 255.571 75.0426 255.571 80.6548C255.571 86.267 260.137 90.8323 265.749 90.8323C271.36 90.8323 275.926 86.267 275.926 80.6548C275.926 75.0426 271.36 70.4773 265.749 70.4773Z" fill="#0F227A"/>
<g opacity="0.3">
<g opacity="0.3">
<path opacity="0.3" d="M286.048 87.8882C285.532 94.6368 280.161 100.164 273.432 100.87C269.114 101.319 265.129 99.8112 262.257 97.1222C261.313 95.6622 262.229 94.6031 263.628 94.6574C264.552 94.7998 265.502 94.8472 266.473 94.7997C273.643 94.447 279.51 88.6007 279.889 81.4312C279.903 81.1803 279.91 80.9224 279.91 80.6706C279.917 78.3964 282.864 77.5271 284.038 79.4692C284.113 79.5916 284.181 79.7072 284.249 79.822C285.592 82.1781 286.265 84.9482 286.048 87.8882Z" fill="#0F227A"/>
</g>
</g>
<path d="M273.112 88.0198C277.18 83.9517 277.18 77.3561 273.112 73.288C269.044 69.22 262.449 69.22 258.381 73.288C254.313 77.3561 254.313 83.9517 258.381 88.0198C262.449 92.0879 269.044 92.0879 273.112 88.0198Z" fill="#D0D4D8"/>
<path d="M360.171 76.2101C363.356 76.2101 365.937 73.6289 365.937 70.4449C365.937 67.2609 363.356 64.6797 360.171 64.6797C356.987 64.6797 354.406 67.2609 354.406 70.4449C354.406 73.6289 356.987 76.2101 360.171 76.2101Z" fill="#E5C62C"/>
<path d="M372.019 88.0568C375.203 88.0568 377.784 85.4756 377.784 82.2916C377.784 79.1076 375.203 76.5264 372.019 76.5264C368.835 76.5264 366.253 79.1076 366.253 82.2916C366.253 85.4756 368.835 88.0568 372.019 88.0568Z" fill="#E52C5C"/>
<path d="M348.324 88.0569C351.508 88.0569 354.09 85.4758 354.09 82.2917C354.09 79.1077 351.508 76.5265 348.324 76.5265C345.14 76.5265 342.559 79.1077 342.559 82.2917C342.559 85.4758 345.14 88.0569 348.324 88.0569Z" fill="#5E7DEF"/>
<g opacity="0.3">
<g opacity="0.3">
<path opacity="0.3" d="M369.392 74.4936C369.392 77.6793 366.806 80.2596 363.626 80.2596C361.111 80.2596 358.969 78.6465 358.182 76.399C359.004 76.8475 359.941 77.1 360.934 77.1C364.119 77.1 366.7 74.5196 366.7 71.334C366.7 70.669 366.583 70.0285 366.377 69.4286C368.172 70.4012 369.392 72.3066 369.392 74.4936Z" fill="#0F227A"/>
</g>
<g opacity="0.3">
<path opacity="0.3" d="M369.392 98.1889C369.392 101.375 366.806 103.955 363.626 103.955C361.111 103.955 358.969 102.342 358.182 100.094C359.004 100.543 359.941 100.795 360.934 100.795C364.119 100.795 366.7 98.2149 366.7 95.0293C366.7 94.359 366.583 93.7185 366.377 93.1239C368.172 94.0957 369.392 96.0011 369.392 98.1889Z" fill="#0F227A"/>
</g>
<g opacity="0.3">
<path opacity="0.3" d="M381.237 86.3438C381.237 89.5241 378.656 92.1052 375.471 92.1052C372.955 92.1052 370.813 90.4921 370.027 88.2493C370.843 88.6977 371.786 88.9502 372.784 88.9502C375.969 88.9502 378.55 86.3699 378.55 83.1842C378.55 82.5139 378.434 81.8734 378.227 81.2788C380.021 82.256 381.237 84.1561 381.237 86.3438Z" fill="#0F227A"/>
</g>
<g opacity="0.3">
<path opacity="0.3" d="M357.541 86.3438C357.541 89.5241 354.961 92.1052 351.775 92.1052C349.26 92.1052 347.118 90.4921 346.332 88.2493C347.148 88.6977 348.091 88.9502 349.089 88.9502C352.274 88.9502 354.855 86.3699 354.855 83.1842C354.855 82.5139 354.738 81.8734 354.532 81.2788C356.327 82.256 357.541 84.1561 357.541 86.3438Z" fill="#0F227A"/>
</g>
</g>
<path d="M360.171 99.905C363.355 99.905 365.937 97.3238 365.937 94.1397C365.937 90.9557 363.355 88.3745 360.171 88.3745C356.987 88.3745 354.406 90.9557 354.406 94.1397C354.406 97.3238 356.987 99.905 360.171 99.905Z" fill="#55BC5C"/>
<g opacity="0.55">
<path opacity="0.55" d="M364.341 66.4678C363.852 66.3255 363.339 66.2551 362.811 66.2551C359.624 66.2551 357.045 68.8339 357.045 72.0203C357.045 73.5661 357.653 74.9703 358.639 75.9949C356.201 75.3322 354.403 73.1008 354.403 70.4424C354.403 67.256 356.99 64.6772 360.168 64.6772C361.81 64.678 363.293 65.3644 364.341 66.4678Z" fill="white"/>
</g>
<g opacity="0.55">
<path opacity="0.55" d="M376.188 78.3143C375.699 78.1719 375.186 78.1015 374.657 78.1015C371.471 78.1015 368.892 80.6888 368.892 83.8668C368.892 85.4125 369.5 86.8167 370.485 87.8421C368.048 87.1794 366.25 84.9473 366.25 82.2896C366.25 79.1109 368.837 76.5244 372.015 76.5244C373.656 76.5236 375.139 77.21 376.188 78.3143Z" fill="white"/>
</g>
<g opacity="0.55">
<path opacity="0.55" d="M352.495 78.3143C352.006 78.1719 351.494 78.1015 350.966 78.1015C347.779 78.1015 345.201 80.6888 345.201 83.8668C345.201 85.4125 345.808 86.8167 346.794 87.8421C344.349 87.1794 342.558 84.9473 342.558 82.2896C342.558 79.1109 345.137 76.5244 348.323 76.5244C349.964 76.5236 351.446 77.21 352.495 78.3143Z" fill="white"/>
</g>
<g opacity="0.55">
<path opacity="0.55" d="M364.341 90.1681C363.852 90.0258 363.339 89.9553 362.811 89.9553C359.624 89.9553 357.045 92.5342 357.045 95.7206C357.045 97.2663 357.653 98.6621 358.639 99.6952C356.201 99.0325 354.403 96.7926 354.403 94.1427C354.403 90.9563 356.99 88.3774 360.168 88.3774C361.81 88.3774 363.293 89.0639 364.341 90.1681Z" fill="white"/>
</g>
<path d="M387.549 168.623C384.703 168.623 381.866 167.701 379.461 165.879C372.469 160.582 364.297 151.83 356.507 143.161C356.486 143.138 356.466 143.114 356.446 143.091C352.486 138.305 348.053 136.373 342.49 137.009C342.404 137.019 342.319 137.024 342.232 137.024H283.053C282.967 137.024 282.881 137.019 282.796 137.009C277.234 136.374 272.799 138.305 268.84 143.091C268.82 143.114 268.8 143.138 268.78 143.161C260.99 151.83 252.819 160.581 245.825 165.879C241.38 169.247 235.457 169.538 230.734 166.62C218.977 159.356 215.425 144.813 219.873 122.162C223.532 103.533 232.053 82.093 240.466 61.7295C240.658 61.2658 240.998 60.8778 241.434 60.6283L245.746 58.1536L246.685 54.7285C247.343 52.3233 249.01 50.3353 251.258 49.2731C259.141 45.548 267.2 42.9149 275.212 41.4472C277.276 41.0684 279.401 41.464 281.195 42.5606L286.971 46.0906C288.453 46.9958 290.154 47.4741 291.89 47.4741H333.395C335.132 47.4741 336.833 46.9958 338.314 46.0906L344.091 42.5606C345.885 41.464 348.008 41.0684 350.074 41.4472C358.086 42.9149 366.146 45.548 374.028 49.2731C376.276 50.3353 377.944 52.3241 378.602 54.7292L379.54 58.1544L383.852 60.6291C384.288 60.8786 384.628 61.2666 384.819 61.7303C393.233 82.0937 401.754 103.533 405.412 122.163C409.861 144.814 406.309 159.356 394.552 166.621C392.384 167.959 389.963 168.623 387.549 168.623ZM359.911 140.163C367.541 148.652 375.52 157.202 382.201 162.263C385.141 164.491 389.053 164.685 392.167 162.761C415.493 148.348 394.871 97.9408 380.923 64.1775L376.471 61.6224C375.95 61.3239 375.57 60.8319 375.412 60.2542L374.227 55.926C373.919 54.8004 373.141 53.8699 372.091 53.374C364.565 49.8172 356.883 47.3058 349.258 45.9084C348.292 45.7309 347.297 45.9169 346.457 46.4303L340.681 49.9603C338.487 51.301 335.968 52.0096 333.396 52.0096H291.89C289.319 52.0096 286.8 51.301 284.605 49.9603L278.829 46.4303C277.989 45.9169 276.995 45.7317 276.029 45.9084C268.405 47.305 260.723 49.8172 253.195 53.374C252.146 53.8699 251.368 54.8004 251.059 55.926L249.874 60.2542C249.716 60.8319 249.335 61.3239 248.815 61.6224L244.363 64.1775C230.414 97.9408 209.793 148.347 233.119 162.761C236.234 164.686 240.146 164.491 243.085 162.263C249.766 157.201 257.745 148.652 265.374 140.164C270.298 134.232 276.128 131.721 283.179 132.489H342.106C349.159 131.719 354.987 134.232 359.911 140.163Z" fill="url(#paint0_linear_34_1204)"/>
<path d="M325.669 73.2644H299.617C295.903 73.2644 292.316 71.711 289.775 69.0021L281.386 60.0589C278.174 56.6353 273.353 55.225 268.804 56.3797L248.182 61.6092C247.102 61.8817 246.006 61.2297 245.732 60.1507C245.459 59.0717 246.112 57.9744 247.191 57.7005L267.813 52.4709C273.783 50.9565 280.112 52.8068 284.327 57.3002L292.716 66.2435C294.498 68.1427 297.013 69.2317 299.617 69.2317H325.669C328.273 69.2317 330.787 68.1427 332.57 66.2435L340.959 57.3002C345.173 52.8076 351.5 50.9565 357.473 52.4709L378.094 57.7005C379.174 57.9744 379.827 59.071 379.553 60.1507C379.28 61.2297 378.182 61.8817 377.104 61.6092L356.482 56.3797C351.932 55.2257 347.111 56.6353 343.9 60.0589L335.51 69.0021C332.97 71.711 329.382 73.2644 325.669 73.2644Z" fill="url(#paint1_linear_34_1204)"/>
<path d="M282.856 60.1922C282.624 60.1922 282.389 60.1386 282.169 60.0261C281.425 59.6458 281.131 58.7344 281.511 57.9914L286.46 48.3159C286.841 47.5721 287.752 47.2782 288.495 47.6585C289.239 48.0388 289.532 48.9502 289.152 49.6933L284.203 59.3688C283.936 59.8914 283.405 60.1922 282.856 60.1922Z" fill="url(#paint2_linear_34_1204)"/>
<path d="M342.438 60.1921C341.888 60.1921 341.358 59.8914 341.09 59.368L336.141 49.6924C335.76 48.9486 336.055 48.038 336.798 47.6577C337.542 47.2781 338.453 47.5712 338.833 48.315L343.782 57.9906C344.163 58.7344 343.868 59.645 343.125 60.0253C342.905 60.1385 342.67 60.1921 342.438 60.1921Z" fill="url(#paint3_linear_34_1204)"/>
<path d="M288.658 126.079C279.807 126.079 272.605 118.879 272.605 110.027C272.605 101.174 279.807 93.9736 288.658 93.9736C297.509 93.9736 304.711 101.174 304.711 110.027C304.711 118.879 297.509 126.079 288.658 126.079ZM288.658 96.8455C281.39 96.8455 275.476 102.758 275.476 110.027C275.476 117.296 281.39 123.209 288.658 123.209C295.926 123.209 301.84 117.296 301.84 110.027C301.84 102.758 295.926 96.8455 288.658 96.8455Z" fill="url(#paint4_linear_34_1204)"/>
<path d="M337.488 121.879C330.952 121.879 325.636 116.562 325.636 110.026C325.636 103.49 330.953 98.1733 337.488 98.1733C344.024 98.1733 349.34 103.49 349.34 110.026C349.34 116.562 344.023 121.879 337.488 121.879ZM337.488 101.045C332.536 101.045 328.507 105.074 328.507 110.027C328.507 114.979 332.536 119.008 337.488 119.008C342.44 119.008 346.469 114.979 346.469 110.027C346.469 105.074 342.44 101.045 337.488 101.045Z" fill="url(#paint5_linear_34_1204)"/>
<path d="M337.488 114.983C340.225 114.983 342.444 112.764 342.444 110.026C342.444 107.289 340.225 105.07 337.488 105.07C334.751 105.07 332.531 107.289 332.531 110.026C332.531 112.764 334.751 114.983 337.488 114.983Z" fill="url(#paint6_linear_34_1204)"/>
<path d="M265.748 93.1095C258.881 93.1095 253.295 87.5226 253.295 80.6562C253.295 73.7891 258.882 68.2021 265.748 68.2021C272.615 68.2021 278.202 73.7891 278.202 80.6562C278.202 87.5226 272.615 93.1095 265.748 93.1095ZM265.748 72.2754C261.127 72.2754 257.368 76.035 257.368 80.6554C257.368 85.2759 261.128 89.0354 265.748 89.0354C270.369 89.0354 274.128 85.2767 274.128 80.6554C274.128 76.035 270.369 72.2754 265.748 72.2754Z" fill="url(#paint7_linear_34_1204)"/>
<path d="M265.748 85.6115C268.486 85.6115 270.705 83.3924 270.705 80.6551C270.705 77.9178 268.486 75.6987 265.748 75.6987C263.011 75.6987 260.792 77.9178 260.792 80.6551C260.792 83.3924 263.011 85.6115 265.748 85.6115Z" fill="url(#paint8_linear_34_1204)"/>
<path d="M298.763 107.445V112.608C298.763 113.247 298.244 113.766 297.604 113.766H292.714V118.656C292.714 119.296 292.196 119.815 291.556 119.815H286.398C285.758 119.815 285.24 119.296 285.24 118.656V113.766H280.35C279.71 113.766 279.191 113.247 279.191 112.608V107.445C279.191 106.805 279.71 106.286 280.35 106.286H285.24V101.396C285.24 100.757 285.758 100.238 286.398 100.238H291.556C292.196 100.238 292.714 100.757 292.714 101.396V106.286H297.604C298.244 106.286 298.763 106.805 298.763 107.445Z" fill="url(#paint9_linear_34_1204)"/>
<path d="M360.171 101.602C356.057 101.602 352.709 98.2544 352.709 94.139C352.709 90.0237 356.057 86.6758 360.171 86.6758C364.287 86.6758 367.635 90.0237 367.635 94.139C367.635 98.2544 364.287 101.602 360.171 101.602ZM360.171 90.0719C357.928 90.0719 356.103 91.8969 356.103 94.1398C356.103 96.3827 357.928 98.2077 360.171 98.2077C362.415 98.2077 364.239 96.3827 364.239 94.1398C364.239 91.8962 362.414 90.0719 360.171 90.0719Z" fill="url(#paint10_linear_34_1204)"/>
<path d="M360.171 77.908C356.057 77.908 352.709 74.5601 352.709 70.4447C352.709 66.3293 356.057 62.9814 360.171 62.9814C364.287 62.9814 367.635 66.3293 367.635 70.4447C367.635 74.5601 364.287 77.908 360.171 77.908ZM360.171 66.3768C357.928 66.3768 356.103 68.2018 356.103 70.4447C356.103 72.6876 357.928 74.5127 360.171 74.5127C362.415 74.5127 364.239 72.6876 364.239 70.4447C364.239 68.2018 362.414 66.3768 360.171 66.3768Z" fill="url(#paint11_linear_34_1204)"/>
<path d="M372.019 89.7553C367.904 89.7553 364.556 86.4075 364.556 82.2921C364.556 78.1775 367.904 74.8296 372.019 74.8296C376.133 74.8296 379.481 78.1775 379.481 82.2921C379.482 86.4075 376.134 89.7553 372.019 89.7553ZM372.019 78.2241C369.776 78.2241 367.951 80.0492 367.951 82.2921C367.951 84.535 369.776 86.36 372.019 86.36C374.262 86.36 376.087 84.535 376.087 82.2921C376.087 80.0492 374.262 78.2241 372.019 78.2241Z" fill="url(#paint12_linear_34_1204)"/>
<path d="M348.324 89.7553C344.209 89.7553 340.861 86.4075 340.861 82.2921C340.861 78.1775 344.209 74.8296 348.324 74.8296C352.439 74.8296 355.787 78.1775 355.787 82.2921C355.787 86.4075 352.439 89.7553 348.324 89.7553ZM348.324 78.2241C346.081 78.2241 344.256 80.0492 344.256 82.2921C344.256 84.535 346.081 86.36 348.324 86.36C350.567 86.36 352.392 84.535 352.392 82.2921C352.392 80.0492 350.567 78.2241 348.324 78.2241Z" fill="url(#paint13_linear_34_1204)"/>
<path d="M307.425 86.9863C307.908 84.9405 306.641 82.8904 304.595 82.4074C302.549 81.9243 300.499 83.1911 300.016 85.2369C299.533 87.2827 300.8 89.3328 302.846 89.8158C304.892 90.2989 306.942 89.0321 307.425 86.9863Z" fill="url(#paint14_linear_34_1204)"/>
<path d="M324.254 88.7889C325.741 87.3025 325.741 84.8926 324.254 83.4061C322.768 81.9197 320.358 81.9197 318.872 83.4061C317.385 84.8926 317.385 87.3025 318.872 88.7889C320.358 90.2753 322.768 90.2753 324.254 88.7889Z" fill="url(#paint15_linear_34_1204)"/>
<g opacity="0.3">
<g opacity="0.3">
<path opacity="0.3" d="M309.963 88.3723C309.963 90.4744 308.259 92.1831 306.157 92.1831C304.539 92.1831 303.153 91.17 302.609 89.7383C302.962 89.8492 303.335 89.9043 303.723 89.9043C305.825 89.9043 307.528 88.2009 307.528 86.0988C307.528 85.6152 307.437 85.1561 307.271 84.7329C308.829 85.2066 309.963 86.6582 309.963 88.3723Z" fill="#0F227A"/>
</g>
<g opacity="0.3">
<path opacity="0.3" d="M327.806 88.3723C327.806 90.4744 326.102 92.1831 324 92.1831C322.382 92.1831 320.996 91.17 320.452 89.7383C320.805 89.8492 321.177 89.9043 321.566 89.9043C323.668 89.9043 325.371 88.2009 325.371 86.0988C325.371 85.6152 325.28 85.1561 325.114 84.7329C326.672 85.2066 327.806 86.6582 327.806 88.3723Z" fill="#0F227A"/>
</g>
</g>
<defs>
<linearGradient id="paint0_linear_34_1204" x1="332.5" y1="34.8828" x2="253.5" y2="172.383" gradientUnits="userSpaceOnUse">
<stop stop-color="#66E4AB"/>
<stop offset="0.479167" stop-color="#00D8FF" stop-opacity="0.910156"/>
<stop offset="1" stop-color="#546FDD"/>
</linearGradient>
<linearGradient id="paint1_linear_34_1204" x1="326.698" y1="50.8757" x2="322.613" y2="80.9372" gradientUnits="userSpaceOnUse">
<stop stop-color="#66E4AB"/>
<stop offset="0.479167" stop-color="#00D8FF" stop-opacity="0.910156"/>
<stop offset="1" stop-color="#546FDD"/>
</linearGradient>
<linearGradient id="paint2_linear_34_1204" x1="286.168" y1="46.8513" x2="277.462" y2="53.2521" gradientUnits="userSpaceOnUse">
<stop stop-color="#66E4AB"/>
<stop offset="0.479167" stop-color="#00D8FF" stop-opacity="0.910156"/>
<stop offset="1" stop-color="#546FDD"/>
</linearGradient>
<linearGradient id="paint3_linear_34_1204" x1="340.798" y1="46.8508" x2="332.091" y2="53.252" gradientUnits="userSpaceOnUse">
<stop stop-color="#66E4AB"/>
<stop offset="0.479167" stop-color="#00D8FF" stop-opacity="0.910156"/>
<stop offset="1" stop-color="#546FDD"/>
</linearGradient>
<linearGradient id="paint4_linear_34_1204" x1="292.027" y1="92.3536" x2="269.251" y2="119.023" gradientUnits="userSpaceOnUse">
<stop stop-color="#66E4AB"/>
<stop offset="0.479167" stop-color="#00D8FF" stop-opacity="0.910156"/>
<stop offset="1" stop-color="#546FDD"/>
</linearGradient>
<linearGradient id="paint5_linear_34_1204" x1="339.976" y1="96.9772" x2="323.159" y2="116.668" gradientUnits="userSpaceOnUse">
<stop stop-color="#66E4AB"/>
<stop offset="0.479167" stop-color="#00D8FF" stop-opacity="0.910156"/>
<stop offset="1" stop-color="#546FDD"/>
</linearGradient>
<linearGradient id="paint6_linear_34_1204" x1="338.528" y1="104.57" x2="331.496" y2="112.804" gradientUnits="userSpaceOnUse">
<stop stop-color="#66E4AB"/>
<stop offset="0.479167" stop-color="#00D8FF" stop-opacity="0.910156"/>
<stop offset="1" stop-color="#546FDD"/>
</linearGradient>
<linearGradient id="paint7_linear_34_1204" x1="268.362" y1="66.9453" x2="250.693" y2="87.6348" gradientUnits="userSpaceOnUse">
<stop stop-color="#66E4AB"/>
<stop offset="0.479167" stop-color="#00D8FF" stop-opacity="0.910156"/>
<stop offset="1" stop-color="#546FDD"/>
</linearGradient>
<linearGradient id="paint8_linear_34_1204" x1="266.789" y1="75.1985" x2="259.757" y2="83.4328" gradientUnits="userSpaceOnUse">
<stop stop-color="#66E4AB"/>
<stop offset="0.479167" stop-color="#00D8FF" stop-opacity="0.910156"/>
<stop offset="1" stop-color="#546FDD"/>
</linearGradient>
<linearGradient id="paint9_linear_34_1204" x1="291.031" y1="99.2499" x2="277.142" y2="115.508" gradientUnits="userSpaceOnUse">
<stop stop-color="#66E4AB"/>
<stop offset="0.479167" stop-color="#00D8FF" stop-opacity="0.910156"/>
<stop offset="1" stop-color="#546FDD"/>
</linearGradient>
<linearGradient id="paint10_linear_34_1204" x1="361.738" y1="85.9226" x2="351.149" y2="98.3212" gradientUnits="userSpaceOnUse">
<stop stop-color="#66E4AB"/>
<stop offset="0.479167" stop-color="#00D8FF" stop-opacity="0.910156"/>
<stop offset="1" stop-color="#546FDD"/>
</linearGradient>
<linearGradient id="paint11_linear_34_1204" x1="361.738" y1="62.2283" x2="351.149" y2="74.6268" gradientUnits="userSpaceOnUse">
<stop stop-color="#66E4AB"/>
<stop offset="0.479167" stop-color="#00D8FF" stop-opacity="0.910156"/>
<stop offset="1" stop-color="#546FDD"/>
</linearGradient>
<linearGradient id="paint12_linear_34_1204" x1="373.585" y1="74.0764" x2="362.996" y2="86.4744" gradientUnits="userSpaceOnUse">
<stop stop-color="#66E4AB"/>
<stop offset="0.479167" stop-color="#00D8FF" stop-opacity="0.910156"/>
<stop offset="1" stop-color="#546FDD"/>
</linearGradient>
<linearGradient id="paint13_linear_34_1204" x1="349.89" y1="74.0764" x2="339.302" y2="86.4749" gradientUnits="userSpaceOnUse">
<stop stop-color="#66E4AB"/>
<stop offset="0.479167" stop-color="#00D8FF" stop-opacity="0.910156"/>
<stop offset="1" stop-color="#546FDD"/>
</linearGradient>
<linearGradient id="paint14_linear_34_1204" x1="299.826" y1="84.3713" x2="304.739" y2="91.08" gradientUnits="userSpaceOnUse">
<stop stop-color="#66E4AB"/>
<stop offset="0.479167" stop-color="#00D8FF" stop-opacity="0.910156"/>
<stop offset="1" stop-color="#546FDD"/>
</linearGradient>
<linearGradient id="paint15_linear_34_1204" x1="319.165" y1="82.5697" x2="319.818" y2="90.8596" gradientUnits="userSpaceOnUse">
<stop stop-color="#66E4AB"/>
<stop offset="0.479167" stop-color="#00D8FF" stop-opacity="0.910156"/>
<stop offset="1" stop-color="#546FDD"/>
</linearGradient>
</defs>
</svg>
