<svg width="97" height="98" viewBox="0 0 97 98" fill="none" xmlns="http://www.w3.org/2000/svg">
<path d="M12.514 46.1469L46.4994 12.1615C47.6912 10.9696 49.6225 10.9696 50.8144 12.1615L84.7998 46.1469C85.9916 47.3388 85.9916 49.2699 84.7998 50.4618L50.8144 84.4473C49.6225 85.6392 47.6912 85.6392 46.4994 84.4473L12.514 50.4618C11.3251 49.2699 11.3251 47.3358 12.514 46.1469Z" fill="url(#paint0_linear_73_74)"/>
<path d="M50.7721 0.875812L61.4449 11.5485C62.6126 12.7162 62.6126 14.6112 61.4449 15.7789C60.2771 16.9467 58.3822 16.9467 57.2144 15.7789L50.7721 9.33672C49.6044 8.16897 47.7094 8.16897 46.5417 9.33672L40.0994 15.7789C38.9317 16.9467 37.0367 16.9467 35.869 15.7789C34.7012 14.6112 34.7012 12.7162 35.869 11.5485L46.5417 0.875812C47.7094 -0.291937 49.6044 -0.291937 50.7721 0.875812Z" fill="url(#paint1_linear_73_74)"/>
<path d="M0.875812 46.1852L11.5484 35.5125C12.7161 34.3448 14.6111 34.3448 15.7788 35.5125C16.9466 36.6803 16.9466 38.5752 15.7788 39.7429L9.33672 46.1852C8.16897 47.3529 8.16897 49.2479 9.33672 50.4156L15.7788 56.8579C16.9466 58.0256 16.9466 59.9205 15.7788 61.0883C14.6111 62.256 12.7161 62.256 11.5484 61.0883L0.875812 50.4156C-0.291937 49.2479 -0.291937 47.3559 0.875812 46.1852Z" fill="url(#paint2_linear_73_74)"/>
<path d="M46.5417 96.5192L35.869 85.8465C34.7012 84.6788 34.7012 82.7838 35.869 81.616C37.0367 80.4483 38.9317 80.4483 40.0994 81.616L46.5417 88.0583C47.7094 89.2261 49.6044 89.2261 50.7721 88.0583L57.2144 81.616C58.3822 80.4483 60.2771 80.4483 61.4449 81.616C62.6126 82.7838 62.6126 84.6788 61.4449 85.8465L50.7721 96.5192C49.6044 97.687 47.7094 97.687 46.5417 96.5192Z" fill="url(#paint3_linear_73_74)"/>
<path d="M96.1243 50.4196L85.4517 61.0923C84.284 62.26 82.389 62.26 81.2213 61.0923C80.0535 59.9245 80.0535 58.0296 81.2213 56.8619L87.6634 50.4196C88.8311 49.2519 88.8311 47.3569 87.6634 46.1892L81.2213 39.7469C80.0535 38.5791 80.0535 36.6842 81.2213 35.5164C82.389 34.3487 84.284 34.3487 85.4517 35.5164L96.1243 46.1892C97.292 47.3569 97.292 49.2488 96.1243 50.4196Z" fill="url(#paint4_linear_73_74)"/>
<path d="M52.9386 30.7089H38.9045C37.6794 30.7089 36.6897 29.7162 36.6897 28.4941C36.6897 27.269 37.6824 26.2793 38.9045 26.2793H52.9386C54.1637 26.2793 55.1534 27.2721 55.1534 28.4941C55.1534 29.7162 54.1607 30.7089 52.9386 30.7089Z" fill="white"/>
<path d="M50.4372 39.0673H27.9753C26.7502 39.0673 25.7605 38.0746 25.7605 36.8525C25.7605 35.6274 26.7532 34.6377 27.9753 34.6377H50.4372C51.6623 34.6377 52.6519 35.6305 52.6519 36.8525C52.6519 38.0746 51.6623 39.0673 50.4372 39.0673Z" fill="white"/>
<path d="M66.3843 47.4257H41.4211C40.196 47.4257 39.2063 46.433 39.2063 45.2109C39.2063 43.9858 40.199 42.9961 41.4211 42.9961H66.3843C67.6094 42.9961 68.5992 43.9889 68.5992 45.2109C68.6022 46.436 67.6094 47.4257 66.3843 47.4257Z" fill="white"/>
<path d="M54.7249 55.7871H24.2065C22.9814 55.7871 21.9917 54.7943 21.9917 53.5722C21.9917 52.3472 22.9844 51.3574 24.2065 51.3574H54.7249C55.95 51.3574 56.9396 52.3502 56.9396 53.5722C56.9396 54.7943 55.9469 55.7871 54.7249 55.7871Z" fill="white"/>
<path d="M61.1792 64.1454H30.6609C29.4359 64.1454 28.446 63.1526 28.446 61.9306C28.446 60.7055 29.4389 59.7158 30.6609 59.7158H61.1792C62.4043 59.7158 63.3941 60.7085 63.3941 61.9306C63.3971 63.1557 62.4043 64.1454 61.1792 64.1454Z" fill="white"/>
<defs>
<linearGradient id="paint0_linear_73_74" x1="11.6219" y1="48.3028" x2="85.692" y2="48.3028" gradientUnits="userSpaceOnUse">
<stop stop-color="#6FDAE4"/>
<stop offset="0.5899" stop-color="#62B5E5"/>
<stop offset="1" stop-color="#5AA0E6"/>
</linearGradient>
<linearGradient id="paint1_linear_73_74" x1="34.9913" y1="8.32923" x2="62.3229" y2="8.32923" gradientUnits="userSpaceOnUse">
<stop stop-color="#77D16B"/>
<stop offset="0.1771" stop-color="#75D076"/>
<stop offset="0.4883" stop-color="#6FCC93"/>
<stop offset="0.8942" stop-color="#67C6C3"/>
<stop offset="1" stop-color="#64C4D0"/>
</linearGradient>
<linearGradient id="paint2_linear_73_74" x1="-3.01742e-05" y1="48.3018" x2="16.6575" y2="48.3018" gradientUnits="userSpaceOnUse">
<stop stop-color="#77D16B"/>
<stop offset="0.1771" stop-color="#75D076"/>
<stop offset="0.4883" stop-color="#6FCC93"/>
<stop offset="0.8942" stop-color="#67C6C3"/>
<stop offset="1" stop-color="#64C4D0"/>
</linearGradient>
<linearGradient id="paint3_linear_73_74" x1="34.9913" y1="89.0669" x2="62.3229" y2="89.0669" gradientUnits="userSpaceOnUse">
<stop stop-color="#77D16B"/>
<stop offset="0.1771" stop-color="#75D076"/>
<stop offset="0.4883" stop-color="#6FCC93"/>
<stop offset="0.8942" stop-color="#67C6C3"/>
<stop offset="1" stop-color="#64C4D0"/>
</linearGradient>
<linearGradient id="paint4_linear_73_74" x1="80.342" y1="48.3027" x2="96.9996" y2="48.3027" gradientUnits="userSpaceOnUse">
<stop stop-color="#77D16B"/>
<stop offset="0.1771" stop-color="#75D076"/>
<stop offset="0.4883" stop-color="#6FCC93"/>
<stop offset="0.8942" stop-color="#67C6C3"/>
<stop offset="1" stop-color="#64C4D0"/>
</linearGradient>
</defs>
</svg>
