<svg width="425" height="199" viewBox="0 0 425 199" fill="none" xmlns="http://www.w3.org/2000/svg">
<path d="M134 188C134 193.523 129.522 198 124 198H41.9995C36.4767 198 31.9995 193.523 31.9995 188L31.9995 116L134 116V188Z" fill="#3C53A5"/>
<path d="M193.999 10C193.999 4.47715 198.476 0 203.999 0H390.999C396.522 0 400.999 4.47715 400.999 10V82H193.999V10Z" fill="url(#paint0_linear_34_1412)"/>
<rect y="16" width="425" height="166" rx="10" fill="#1A1A1A"/>
<path d="M180.999 10C180.999 4.47715 185.476 0 190.999 0H387.999V82H180.999V10Z" fill="url(#paint1_linear_34_1412)"/>
<path d="M241.711 63L254.063 29.08H238.575L222.895 46.104L219.631 29.08H204.143L191.791 63H204.079L210.991 43.928L214.511 63H218.927L236.335 43.928L229.423 63H241.711ZM290.667 63L286.443 35.544C286.315 35.032 286.144 34.4133 285.931 33.688C285.76 32.92 285.547 32.1946 285.291 31.512C285.035 30.8293 284.715 30.2533 284.331 29.784C283.989 29.3146 283.605 29.08 283.179 29.08H272.427C272.128 29.08 271.744 29.2506 271.275 29.592C270.848 29.8906 270.4 30.2533 269.931 30.68C269.504 31.064 269.099 31.4693 268.715 31.896C268.331 32.3226 268.075 32.664 267.947 32.92L244.907 62.36V62.552C244.907 62.5093 244.864 62.6586 244.779 63H271.851C272.149 62.872 272.619 62.4666 273.259 61.784C273.899 61.1013 274.539 60.3546 275.179 59.544C275.861 58.7333 276.459 57.9653 276.971 57.24C277.525 56.5146 277.845 56.024 277.931 55.768L279.275 63H290.667ZM264.939 53.784L275.691 39.384L277.931 54.424H264.939V53.784ZM332.034 41.88L324.034 63H314.498C311.853 63 309.272 62.7653 306.754 62.296C304.237 61.8266 301.976 61.016 299.97 59.864C297.965 58.6693 296.344 57.0693 295.106 55.064C293.912 53.0586 293.314 50.52 293.314 47.448C293.314 45.4 293.762 43.288 294.658 41.112C295.554 38.936 296.77 36.952 298.306 35.16C299.842 33.368 301.613 31.9173 303.618 30.808C305.624 29.656 307.757 29.08 310.018 29.08H336.45C335.213 30.7013 333.954 32.2373 332.674 33.688C331.437 35.096 330.072 36.44 328.578 37.72H311.938C311.256 37.72 310.594 37.912 309.954 38.296C309.314 38.6373 308.717 39.1066 308.162 39.704C307.65 40.3013 307.181 40.984 306.754 41.752C306.328 42.4773 305.986 43.2026 305.73 43.928C305.389 45.0373 305.218 45.912 305.218 46.552C305.218 47.3626 305.41 48.2373 305.794 49.176C306.221 50.072 306.754 50.904 307.394 51.672C308.077 52.44 308.802 53.08 309.57 53.592C310.381 54.104 311.17 54.36 311.938 54.36H315.714L317.186 50.2H309.954V50.136C309.997 50.008 310.253 49.6026 310.722 48.92C311.234 48.1946 311.832 47.4053 312.514 46.552C313.197 45.656 313.901 44.7813 314.626 43.928C315.394 43.032 316.077 42.3493 316.674 41.88H332.034ZM340.268 29.08L327.916 63H360.108C360.15 63 360.406 62.7866 360.876 62.36C361.388 61.9333 361.964 61.4213 362.604 60.824C363.244 60.184 363.884 59.5226 364.524 58.84C365.206 58.1573 365.74 57.56 366.124 57.048C366.166 57.0053 366.273 56.856 366.444 56.6C366.614 56.344 366.785 56.0666 366.956 55.768C367.126 55.4693 367.297 55.192 367.468 54.936C367.638 54.6373 367.745 54.4453 367.788 54.36H343.276L344.684 50.52H357.42L366.572 41.88H351.788L345.708 47.768L349.356 37.72H369.068C369.409 37.72 369.942 37.3786 370.668 36.696C371.436 36.0133 372.204 35.2026 372.972 34.264C373.782 33.3253 374.529 32.3866 375.212 31.448C375.937 30.4666 376.449 29.6773 376.748 29.08H340.268Z" fill="black"/>
<path d="M149.567 146L164.543 112.4H172.223L187.247 146H179.087L166.799 116.336H169.871L157.535 146H149.567ZM157.055 138.8L159.119 132.896H176.399L178.511 138.8H157.055ZM206.344 146.576C203.752 146.576 201.336 146.16 199.096 145.328C196.888 144.464 194.968 143.248 193.336 141.68C191.704 140.112 190.424 138.272 189.496 136.16C188.6 134.048 188.152 131.728 188.152 129.2C188.152 126.672 188.6 124.352 189.496 122.24C190.424 120.128 191.704 118.288 193.336 116.72C195 115.152 196.936 113.952 199.144 113.12C201.352 112.256 203.768 111.824 206.392 111.824C209.304 111.824 211.928 112.336 214.264 113.36C216.632 114.352 218.616 115.824 220.216 117.776L215.224 122.384C214.072 121.072 212.792 120.096 211.384 119.456C209.976 118.784 208.44 118.448 206.776 118.448C205.208 118.448 203.768 118.704 202.456 119.216C201.144 119.728 200.008 120.464 199.048 121.424C198.088 122.384 197.336 123.52 196.792 124.832C196.28 126.144 196.024 127.6 196.024 129.2C196.024 130.8 196.28 132.256 196.792 133.568C197.336 134.88 198.088 136.016 199.048 136.976C200.008 137.936 201.144 138.672 202.456 139.184C203.768 139.696 205.208 139.952 206.776 139.952C208.44 139.952 209.976 139.632 211.384 138.992C212.792 138.32 214.072 137.312 215.224 135.968L220.216 140.576C218.616 142.528 216.632 144.016 214.264 145.04C211.928 146.064 209.288 146.576 206.344 146.576ZM220.442 146L235.418 112.4H243.098L258.122 146H249.962L237.674 116.336H240.746L228.41 146H220.442ZM227.93 138.8L229.994 132.896H247.274L249.386 138.8H227.93ZM261.608 146V112.4H276.872C280.52 112.4 283.736 113.104 286.52 114.512C289.304 115.888 291.48 117.824 293.048 120.32C294.616 122.816 295.4 125.776 295.4 129.2C295.4 132.592 294.616 135.552 293.048 138.08C291.48 140.576 289.304 142.528 286.52 143.936C283.736 145.312 280.52 146 276.872 146H261.608ZM269.384 139.616H276.488C278.728 139.616 280.664 139.2 282.296 138.368C283.96 137.504 285.24 136.288 286.136 134.72C287.064 133.152 287.528 131.312 287.528 129.2C287.528 127.056 287.064 125.216 286.136 123.68C285.24 122.112 283.96 120.912 282.296 120.08C280.664 119.216 278.728 118.784 276.488 118.784H269.384V139.616ZM308.416 125.936H324.592V131.984H308.416V125.936ZM308.992 139.76H327.28V146H301.264V112.4H326.656V118.64H308.992V139.76ZM333.467 146V112.4H339.899L354.203 136.112H350.795L364.859 112.4H371.243L371.339 146H364.043L363.995 123.584H365.339L354.107 142.448H350.603L339.131 123.584H340.763V146H333.467ZM387.663 146V132.272L389.439 136.976L374.655 112.4H382.911L394.239 131.264H389.487L400.863 112.4H408.495L393.711 136.976L395.439 132.272V146H387.663Z" fill="#EDEDED"/>
<path d="M26 76.4999C26 50.2664 47.2665 28.9999 73.5 28.9999C99.7335 28.9999 121 50.2664 121 76.4999V198H26V76.4999Z" fill="url(#paint2_linear_34_1412)"/>
<mask id="path-8-outside-1_34_1412" maskUnits="userSpaceOnUse" x="43" y="99.1442" width="60" height="42" fill="black">
<rect fill="white" x="43" y="99.1442" width="60" height="42"/>
<path fill-rule="evenodd" clip-rule="evenodd" d="M46 102.144V110.846C46 125.72 58.0574 137.777 72.9309 137.777C87.8045 137.777 99.8619 125.72 99.8619 110.846V102.144H96.8619V110.846C96.8619 124.063 86.1476 134.777 72.9309 134.777C59.7142 134.777 49 124.063 49 110.846V102.144H46Z"/>
</mask>
<path fill-rule="evenodd" clip-rule="evenodd" d="M46 102.144V110.846C46 125.72 58.0574 137.777 72.9309 137.777C87.8045 137.777 99.8619 125.72 99.8619 110.846V102.144H96.8619V110.846C96.8619 124.063 86.1476 134.777 72.9309 134.777C59.7142 134.777 49 124.063 49 110.846V102.144H46Z" fill="black"/>
<path d="M46 102.144V99.1442H43V102.144H46ZM99.8619 102.144H102.862V99.1442H99.8619V102.144ZM96.8619 102.144V99.1442H93.8619V102.144H96.8619ZM49 102.144H52V99.1442H49V102.144ZM49 110.846V102.144H43V110.846H49ZM72.9309 134.777C59.7142 134.777 49 124.063 49 110.846H43C43 127.377 56.4005 140.777 72.9309 140.777V134.777ZM96.8619 110.846C96.8619 124.063 86.1476 134.777 72.9309 134.777V140.777C89.4613 140.777 102.862 127.377 102.862 110.846H96.8619ZM96.8619 102.144V110.846H102.862V102.144H96.8619ZM99.8619 99.1442H96.8619V105.144H99.8619V99.1442ZM99.8619 110.846V102.144H93.8619V110.846H99.8619ZM72.9309 137.777C87.8045 137.777 99.8619 125.72 99.8619 110.846H93.8619C93.8619 122.406 84.4908 131.777 72.9309 131.777V137.777ZM46 110.846C46 125.72 58.0574 137.777 72.9309 137.777V131.777C61.3711 131.777 52 122.406 52 110.846H46ZM46 102.144V110.846H52V102.144H46ZM49 99.1442H46V105.144H49V99.1442Z" fill="black" mask="url(#path-8-outside-1_34_1412)"/>
<rect x="68.5798" y="138.42" width="8.70216" height="13.0532" fill="black"/>
<rect x="51.1755" y="151.473" width="43.5108" height="6.52662" rx="3.26331" fill="black"/>
<rect x="57.8708" y="70.903" width="15.3226" height="28.2258" fill="#E5E5E5"/>
<path fill-rule="evenodd" clip-rule="evenodd" d="M72.3871 74.9353H55.4563C55.6705 65.5457 63.3492 57.9998 72.7903 57.9998C82.3662 57.9998 90.129 65.7626 90.129 75.3385V110.822C90.129 120.398 82.3662 128.161 72.7903 128.161C63.2145 128.161 55.4517 120.398 55.4517 110.822V95.9029H72.3871V91.8707H55.4517V90.2578H72.3871V86.2255H55.4517V84.6126H72.3871V80.5804H55.4517V78.9676H72.3871V74.9353Z" fill="black"/>
<path d="M124.499 198.016C122.499 198.016 121.332 187.182 120.999 182.016V198.016H124.499Z" fill="#5B8DE0"/>
<path d="M390.726 0.015625C388.726 0.015625 387.56 10.849 387.226 16.0156V0.015625H390.726Z" fill="#66E4AB"/>
<defs>
<linearGradient id="paint0_linear_34_1412" x1="244.999" y1="82.0156" x2="296.999" y2="7.51562" gradientUnits="userSpaceOnUse">
<stop offset="0.4375" stop-color="#5AC494"/>
</linearGradient>
<linearGradient id="paint1_linear_34_1412" x1="227.999" y1="101.016" x2="309.499" y2="-41.4844" gradientUnits="userSpaceOnUse">
<stop stop-color="#546FDD"/>
<stop offset="0.505208" stop-color="#63B1E4"/>
<stop offset="1" stop-color="#66E4AB"/>
</linearGradient>
<linearGradient id="paint2_linear_34_1412" x1="95.9992" y1="37.0156" x2="31.9992" y2="198.016" gradientUnits="userSpaceOnUse">
<stop stop-color="#66E4AB"/>
<stop offset="0.391913" stop-color="#67C3E5"/>
<stop offset="1" stop-color="#546FDD"/>
</linearGradient>
</defs>
</svg>
