<svg width="517" height="570" viewBox="0 0 517 570" fill="none" xmlns="http://www.w3.org/2000/svg">
<path d="M503.04 146.224C503.04 146.224 544.515 208.124 482.997 404.802C482.997 404.802 507.209 202.518 465.807 137.348L486.435 132.91L503.04 146.224Z" fill="url(#paint0_linear_200_402)"/>
<path d="M367.496 20.2441C367.496 20.2441 447.301 59.6421 317.682 416.248C317.682 416.248 324.704 104.335 276.207 70.7763L303.052 28.5753L367.496 20.2441Z" fill="url(#paint1_linear_200_402)"/>
<path d="M136.567 27.7187C136.567 27.7187 216.372 20.244 123.766 355.438C123.766 355.438 130.789 102.076 85.2173 88.5286L118.865 44.9261L136.567 27.7187Z" fill="url(#paint2_linear_200_402)"/>
<path d="M31.2343 461.719C31.2343 461.719 -50.1065 281.08 49.7407 96.0033C49.7407 96.0033 90.9231 47.4177 136.568 27.7188C136.568 27.7188 21.0667 144.511 31.2343 461.719Z" fill="url(#paint3_linear_200_402)"/>
<path d="M196.476 20.244C196.476 20.244 52.5935 267.766 203.498 569.402C203.498 569.402 246.217 72.1777 367.496 20.244C367.496 20.244 237.951 -25.305 196.476 20.244Z" fill="url(#paint4_linear_200_402)"/>
<path d="M503.04 146.224C503.04 146.224 458.712 59.6418 424.552 71.8661C424.552 71.8661 293.397 158.682 391.708 522.762C391.781 522.762 418.846 102.076 503.04 146.224Z" fill="url(#paint5_linear_200_402)"/>
<defs>
<linearGradient id="paint0_linear_200_402" x1="491.289" y1="132.483" x2="491.289" y2="404.375" gradientUnits="userSpaceOnUse">
<stop stop-color="#003635"/>
<stop offset="0.8333" stop-color="#27F0EA"/>
</linearGradient>
<linearGradient id="paint1_linear_200_402" x1="334.032" y1="20.213" x2="334.032" y2="416.217" gradientUnits="userSpaceOnUse">
<stop stop-color="#003635"/>
<stop offset="0.8333" stop-color="#27F0EA"/>
</linearGradient>
<linearGradient id="paint2_linear_200_402" x1="126.901" y1="27.6739" x2="126.901" y2="355.407" gradientUnits="userSpaceOnUse">
<stop stop-color="#003635"/>
<stop offset="0.8333" stop-color="#27F0EA"/>
</linearGradient>
<linearGradient id="paint3_linear_200_402" x1="68.313" y1="27.6876" x2="68.313" y2="461.688" gradientUnits="userSpaceOnUse">
<stop stop-color="#A0E880"/>
<stop offset="0.5833" stop-color="#3FE3C8"/>
</linearGradient>
<linearGradient id="paint4_linear_200_402" x1="251.057" y1="-0.0311446" x2="251.057" y2="569.37" gradientUnits="userSpaceOnUse">
<stop stop-color="#A0E880"/>
<stop offset="0.5833" stop-color="#3FE3C8"/>
</linearGradient>
<linearGradient id="paint5_linear_200_402" x1="429.129" y1="70.6524" x2="429.129" y2="522.731" gradientUnits="userSpaceOnUse">
<stop stop-color="#A0E880"/>
<stop offset="0.5833" stop-color="#3FE3C8"/>
</linearGradient>
</defs>
</svg>
