<svg xmlns="http://www.w3.org/2000/svg" width="2257" height="2567" fill="none" viewBox="0 0 2257 2567"><path fill="url(#paint0_linear_321_108)" d="M1898.67 894.628C1898.67 894.628 2022.64 1068.46 1838.76 1620.77C1838.76 1620.77 1911.13 1052.71 1787.37 869.701L1849.03 857.238L1898.67 894.628Z"/><path fill="url(#paint1_linear_321_108)" d="M1493.51 540.85C1493.51 540.85 1732.06 651.487 1344.6 1652.91C1344.6 1652.91 1365.6 776.993 1220.63 682.755L1300.87 564.245L1493.51 540.85Z"/><path fill="url(#paint2_linear_321_108)" d="M803.222 561.84C803.222 561.84 1041.77 540.849 764.958 1482.15C764.958 1482.15 785.949 770.652 649.729 732.607L750.308 610.162L803.222 561.84Z"/><path fill="url(#paint3_linear_321_108)" d="M488.364 1780.6C488.364 1780.6 245.223 1273.33 543.683 753.597C543.683 753.597 666.784 617.159 803.223 561.84C803.223 561.84 457.972 889.817 488.364 1780.6Z"/><path fill="url(#paint4_linear_321_108)" d="M982.298 540.849C982.298 540.849 552.21 1235.94 1003.29 2083C1003.29 2083 1130.98 686.69 1493.51 540.849C1493.51 540.849 1106.27 412.938 982.298 540.849Z"/><path fill="url(#paint5_linear_321_108)" d="M1898.67 894.628C1898.67 894.628 1766.16 651.488 1664.05 685.816C1664.05 685.816 1272.01 929.613 1565.88 1952.03C1566.1 1952.03 1647 770.653 1898.67 894.628Z"/><g filter="url(#filter0_dddddd_321_108)"><path stroke="#7AE69D" stroke-width="8" d="M761.072 573.182C760.542 573.781 759.997 574.399 759.438 575.037C749.973 585.841 736.523 602.236 720.497 624.681C688.444 669.572 646.093 738.658 604.717 835.607C523.251 1026.5 445.61 1325.3 457.723 1759.98C457.234 1758.8 456.728 1757.57 456.204 1756.28C450.171 1741.48 441.873 1719.72 432.84 1691.98C414.773 1636.5 393.774 1557.11 382.072 1461.52C358.68 1270.43 372.45 1014.76 520.936 755.965C520.955 755.945 520.975 755.923 520.995 755.9C521.227 755.646 521.576 755.265 522.038 754.765C522.962 753.764 524.34 752.283 526.144 750.376C529.753 746.562 535.069 741.043 541.876 734.245C555.492 720.645 575.069 701.933 598.893 681.499C642.424 644.162 699.947 601.241 761.072 573.182Z"/></g><g filter="url(#filter1_dddddd_321_108)"><path stroke="#7AE69D" stroke-width="8" d="M1449.48 539.435C1451.94 540.174 1454.16 540.849 1456.11 541.45C1413.7 561.34 1374.79 597.933 1339.13 646.622C1300.69 699.107 1265.82 765.927 1234.28 841.801C1171.18 993.55 1121.18 1182.04 1082.54 1365.79C1043.89 1549.58 1016.58 1728.78 998.94 1862.02C990.117 1928.65 983.71 1983.79 979.507 2022.28C977.406 2041.53 975.856 2056.61 974.831 2066.89C974.747 2067.73 974.666 2068.54 974.589 2069.32C755.687 1651.37 751.043 1271.34 801.574 994.998C827.08 855.51 866.648 742.437 899.827 664.256C916.416 625.167 931.406 594.807 942.238 574.235C947.654 563.949 952.031 556.111 955.048 550.853C956.556 548.224 957.725 546.241 958.513 544.919C958.908 544.258 959.207 543.762 959.406 543.434C959.431 543.393 959.455 543.354 959.476 543.319C989.537 512.519 1035.75 496.794 1088.92 490.862C1142.19 484.919 1201.84 488.872 1257.83 496.843C1313.78 504.809 1365.91 516.764 1404.05 526.732C1423.12 531.715 1438.68 536.199 1449.48 539.435Z"/></g><g filter="url(#filter2_dddddd_321_108)"><path stroke="#7AE69D" stroke-width="8" d="M1863.32 886.256C1863.33 886.289 1863.35 886.321 1863.37 886.354C1850.92 881.947 1838.77 880.594 1826.95 882.104C1811.68 884.056 1797.25 890.751 1783.67 901.31C1756.6 922.342 1732.47 959.024 1710.89 1005.87C1667.7 1099.67 1633.91 1236.13 1608.05 1376.11C1582.17 1516.17 1564.15 1660.08 1552.6 1768.95C1546.82 1823.39 1542.66 1869.08 1539.93 1901.17C1538.99 1912.28 1538.22 1921.77 1537.61 1929.41C1397.64 1431.34 1422.47 1121.87 1482.57 936.75C1513.05 842.863 1552.62 780.883 1584.47 742.435C1600.4 723.206 1614.4 709.852 1624.38 701.329C1629.37 697.068 1633.36 694.014 1636.08 692.038C1637.43 691.05 1638.48 690.331 1639.17 689.865C1639.43 689.694 1639.63 689.557 1639.79 689.453C1663.46 681.713 1689.36 689.706 1715.56 707.281C1741.86 724.926 1767.71 751.749 1790.55 779.87C1813.36 807.951 1833.02 837.128 1846.98 859.305C1853.96 870.387 1859.51 879.71 1863.32 886.256Z"/></g><defs><filter id="filter0_dddddd_321_108" width="1145.33" height="1955.87" x=".446" y="193.285" color-interpolation-filters="sRGB" filterUnits="userSpaceOnUse"><feFlood flood-opacity="0" result="BackgroundImageFix"/><feColorMatrix in="SourceAlpha" result="hardAlpha" type="matrix" values="0 0 0 0 0 0 0 0 0 0 0 0 0 0 0 0 0 0 127 0"/><feOffset/><feGaussianBlur stdDeviation="4.388"/><feColorMatrix type="matrix" values="0 0 0 0 0.329412 0 0 0 0 0.839216 0 0 0 0 0.662745 0 0 0 1 0"/><feBlend in2="BackgroundImageFix" mode="normal" result="effect1_dropShadow_321_108"/><feColorMatrix in="SourceAlpha" result="hardAlpha" type="matrix" values="0 0 0 0 0 0 0 0 0 0 0 0 0 0 0 0 0 0 127 0"/><feOffset/><feGaussianBlur stdDeviation="8.775"/><feColorMatrix type="matrix" values="0 0 0 0 0.329412 0 0 0 0 0.839216 0 0 0 0 0.662745 0 0 0 1 0"/><feBlend in2="effect1_dropShadow_321_108" mode="normal" result="effect2_dropShadow_321_108"/><feColorMatrix in="SourceAlpha" result="hardAlpha" type="matrix" values="0 0 0 0 0 0 0 0 0 0 0 0 0 0 0 0 0 0 127 0"/><feOffset/><feGaussianBlur stdDeviation="30.713"/><feColorMatrix type="matrix" values="0 0 0 0 0.329412 0 0 0 0 0.839216 0 0 0 0 0.662745 0 0 0 1 0"/><feBlend in2="effect2_dropShadow_321_108" mode="normal" result="effect3_dropShadow_321_108"/><feColorMatrix in="SourceAlpha" result="hardAlpha" type="matrix" values="0 0 0 0 0 0 0 0 0 0 0 0 0 0 0 0 0 0 127 0"/><feOffset/><feGaussianBlur stdDeviation="61.426"/><feColorMatrix type="matrix" values="0 0 0 0 0.329412 0 0 0 0 0.839216 0 0 0 0 0.662745 0 0 0 1 0"/><feBlend in2="effect3_dropShadow_321_108" mode="normal" result="effect4_dropShadow_321_108"/><feColorMatrix in="SourceAlpha" result="hardAlpha" type="matrix" values="0 0 0 0 0 0 0 0 0 0 0 0 0 0 0 0 0 0 127 0"/><feOffset/><feGaussianBlur stdDeviation="105.301"/><feColorMatrix type="matrix" values="0 0 0 0 0.329412 0 0 0 0 0.839216 0 0 0 0 0.662745 0 0 0 1 0"/><feBlend in2="effect4_dropShadow_321_108" mode="normal" result="effect5_dropShadow_321_108"/><feColorMatrix in="SourceAlpha" result="hardAlpha" type="matrix" values="0 0 0 0 0 0 0 0 0 0 0 0 0 0 0 0 0 0 127 0"/><feOffset/><feGaussianBlur stdDeviation="184.277"/><feColorMatrix type="matrix" values="0 0 0 0 0.329412 0 0 0 0 0.839216 0 0 0 0 0.662745 0 0 0 1 0"/><feBlend in2="effect5_dropShadow_321_108" mode="normal" result="effect6_dropShadow_321_108"/><feBlend in="SourceGraphic" in2="effect6_dropShadow_321_108" mode="normal" result="shape"/></filter><filter id="filter1_dddddd_321_108" width="1663.36" height="2566.08" x="287.681" y=".462" color-interpolation-filters="sRGB" filterUnits="userSpaceOnUse"><feFlood flood-opacity="0" result="BackgroundImageFix"/><feColorMatrix in="SourceAlpha" result="hardAlpha" type="matrix" values="0 0 0 0 0 0 0 0 0 0 0 0 0 0 0 0 0 0 127 0"/><feOffset/><feGaussianBlur stdDeviation="5.756"/><feColorMatrix type="matrix" values="0 0 0 0 0.329412 0 0 0 0 0.839216 0 0 0 0 0.662745 0 0 0 1 0"/><feBlend in2="BackgroundImageFix" mode="normal" result="effect1_dropShadow_321_108"/><feColorMatrix in="SourceAlpha" result="hardAlpha" type="matrix" values="0 0 0 0 0 0 0 0 0 0 0 0 0 0 0 0 0 0 127 0"/><feOffset/><feGaussianBlur stdDeviation="11.513"/><feColorMatrix type="matrix" values="0 0 0 0 0.329412 0 0 0 0 0.839216 0 0 0 0 0.662745 0 0 0 1 0"/><feBlend in2="effect1_dropShadow_321_108" mode="normal" result="effect2_dropShadow_321_108"/><feColorMatrix in="SourceAlpha" result="hardAlpha" type="matrix" values="0 0 0 0 0 0 0 0 0 0 0 0 0 0 0 0 0 0 127 0"/><feOffset/><feGaussianBlur stdDeviation="40.295"/><feColorMatrix type="matrix" values="0 0 0 0 0.329412 0 0 0 0 0.839216 0 0 0 0 0.662745 0 0 0 1 0"/><feBlend in2="effect2_dropShadow_321_108" mode="normal" result="effect3_dropShadow_321_108"/><feColorMatrix in="SourceAlpha" result="hardAlpha" type="matrix" values="0 0 0 0 0 0 0 0 0 0 0 0 0 0 0 0 0 0 127 0"/><feOffset/><feGaussianBlur stdDeviation="80.59"/><feColorMatrix type="matrix" values="0 0 0 0 0.329412 0 0 0 0 0.839216 0 0 0 0 0.662745 0 0 0 1 0"/><feBlend in2="effect3_dropShadow_321_108" mode="normal" result="effect4_dropShadow_321_108"/><feColorMatrix in="SourceAlpha" result="hardAlpha" type="matrix" values="0 0 0 0 0 0 0 0 0 0 0 0 0 0 0 0 0 0 127 0"/><feOffset/><feGaussianBlur stdDeviation="138.154"/><feColorMatrix type="matrix" values="0 0 0 0 0.329412 0 0 0 0 0.839216 0 0 0 0 0.662745 0 0 0 1 0"/><feBlend in2="effect4_dropShadow_321_108" mode="normal" result="effect5_dropShadow_321_108"/><feColorMatrix in="SourceAlpha" result="hardAlpha" type="matrix" values="0 0 0 0 0 0 0 0 0 0 0 0 0 0 0 0 0 0 127 0"/><feOffset/><feGaussianBlur stdDeviation="241.769"/><feColorMatrix type="matrix" values="0 0 0 0 0.329412 0 0 0 0 0.839216 0 0 0 0 0.662745 0 0 0 1 0"/><feBlend in2="effect5_dropShadow_321_108" mode="normal" result="effect6_dropShadow_321_108"/><feBlend in="SourceGraphic" in2="effect6_dropShadow_321_108" mode="normal" result="shape"/></filter><filter id="filter2_dddddd_321_108" width="1209.85" height="2037.35" x="1046.72" y="298.587" color-interpolation-filters="sRGB" filterUnits="userSpaceOnUse"><feFlood flood-opacity="0" result="BackgroundImageFix"/><feColorMatrix in="SourceAlpha" result="hardAlpha" type="matrix" values="0 0 0 0 0 0 0 0 0 0 0 0 0 0 0 0 0 0 127 0"/><feOffset/><feGaussianBlur stdDeviation="4.57"/><feColorMatrix type="matrix" values="0 0 0 0 0.329412 0 0 0 0 0.839216 0 0 0 0 0.662745 0 0 0 1 0"/><feBlend in2="BackgroundImageFix" mode="normal" result="effect1_dropShadow_321_108"/><feColorMatrix in="SourceAlpha" result="hardAlpha" type="matrix" values="0 0 0 0 0 0 0 0 0 0 0 0 0 0 0 0 0 0 127 0"/><feOffset/><feGaussianBlur stdDeviation="9.141"/><feColorMatrix type="matrix" values="0 0 0 0 0.329412 0 0 0 0 0.839216 0 0 0 0 0.662745 0 0 0 1 0"/><feBlend in2="effect1_dropShadow_321_108" mode="normal" result="effect2_dropShadow_321_108"/><feColorMatrix in="SourceAlpha" result="hardAlpha" type="matrix" values="0 0 0 0 0 0 0 0 0 0 0 0 0 0 0 0 0 0 127 0"/><feOffset/><feGaussianBlur stdDeviation="31.992"/><feColorMatrix type="matrix" values="0 0 0 0 0.329412 0 0 0 0 0.839216 0 0 0 0 0.662745 0 0 0 1 0"/><feBlend in2="effect2_dropShadow_321_108" mode="normal" result="effect3_dropShadow_321_108"/><feColorMatrix in="SourceAlpha" result="hardAlpha" type="matrix" values="0 0 0 0 0 0 0 0 0 0 0 0 0 0 0 0 0 0 127 0"/><feOffset/><feGaussianBlur stdDeviation="63.984"/><feColorMatrix type="matrix" values="0 0 0 0 0.329412 0 0 0 0 0.839216 0 0 0 0 0.662745 0 0 0 1 0"/><feBlend in2="effect3_dropShadow_321_108" mode="normal" result="effect4_dropShadow_321_108"/><feColorMatrix in="SourceAlpha" result="hardAlpha" type="matrix" values="0 0 0 0 0 0 0 0 0 0 0 0 0 0 0 0 0 0 127 0"/><feOffset/><feGaussianBlur stdDeviation="109.688"/><feColorMatrix type="matrix" values="0 0 0 0 0.329412 0 0 0 0 0.839216 0 0 0 0 0.662745 0 0 0 1 0"/><feBlend in2="effect4_dropShadow_321_108" mode="normal" result="effect5_dropShadow_321_108"/><feColorMatrix in="SourceAlpha" result="hardAlpha" type="matrix" values="0 0 0 0 0 0 0 0 0 0 0 0 0 0 0 0 0 0 127 0"/><feOffset/><feGaussianBlur stdDeviation="191.953"/><feColorMatrix type="matrix" values="0 0 0 0 0.329412 0 0 0 0 0.839216 0 0 0 0 0.662745 0 0 0 1 0"/><feBlend in2="effect5_dropShadow_321_108" mode="normal" result="effect6_dropShadow_321_108"/><feBlend in="SourceGraphic" in2="effect6_dropShadow_321_108" mode="normal" result="shape"/></filter><linearGradient id="paint0_linear_321_108" x1="1863.54" x2="1863.54" y1="856.04" y2="1619.57" gradientUnits="userSpaceOnUse"><stop stop-color="#003635"/><stop offset=".833" stop-color="#27F0EA"/></linearGradient><linearGradient id="paint1_linear_321_108" x1="1393.48" x2="1393.48" y1="540.762" y2="1652.82" gradientUnits="userSpaceOnUse"><stop stop-color="#003635"/><stop offset=".833" stop-color="#27F0EA"/></linearGradient><linearGradient id="paint2_linear_321_108" x1="774.329" x2="774.329" y1="561.714" y2="1482.06" gradientUnits="userSpaceOnUse"><stop stop-color="#003635"/><stop offset=".833" stop-color="#27F0EA"/></linearGradient><linearGradient id="paint3_linear_321_108" x1="599.199" x2="599.199" y1="561.752" y2="1780.52" gradientUnits="userSpaceOnUse"><stop stop-color="#A0E880"/><stop offset=".583" stop-color="#3FE3C8"/></linearGradient><linearGradient id="paint4_linear_321_108" x1="1145.45" x2="1145.45" y1="483.913" y2="2082.91" gradientUnits="userSpaceOnUse"><stop stop-color="#A0E880"/><stop offset=".583" stop-color="#3FE3C8"/></linearGradient><linearGradient id="paint5_linear_321_108" x1="1677.74" x2="1677.74" y1="682.407" y2="1951.94" gradientUnits="userSpaceOnUse"><stop stop-color="#A0E880"/><stop offset=".583" stop-color="#3FE3C8"/></linearGradient></defs></svg>